<svg width="161" height="50" viewBox="0 0 161 50" fill="none" xmlns="http://www.w3.org/2000/svg">
<path d="M24.8324 29.0928C27.8054 26.8555 29.6717 23.6602 30.7069 20.7196C31.7872 17.6504 29.9672 14.5617 27.1229 12.9815L8.78599 2.63934C6.77363 1.50435 4.22906 2.0727 2.89088 3.95606C1.87574 5.38476 1.77971 7.27203 2.64458 8.79639L11.0524 23.6154C13.9915 28.7958 20.0735 32.6743 24.8324 29.0928Z" fill="#FAF862"/>
<path fill-rule="evenodd" clip-rule="evenodd" d="M1.21409 2.76473C-0.263702 4.84457 -0.403502 7.59196 0.855536 9.81106L9.26335 24.6301C10.9016 27.5176 13.4478 30.1174 16.3833 31.5001C19.3848 32.914 22.942 33.089 26.0687 30.7358C29.4557 28.1869 31.5197 24.6029 32.6464 21.4022C34.171 17.071 31.5123 13.0706 28.1274 11.187L9.79592 0.847914C6.86642 -0.80435 3.16216 0.023027 1.21409 2.76473ZM4.43291 7.78138C3.9622 6.95175 4.01447 5.92462 4.56695 5.14705C5.29526 4.12204 6.68013 3.81272 7.77535 4.43043L26.1238 14.7791C28.4246 16.0573 29.4019 18.232 28.7667 20.0365C27.823 22.7172 26.1543 25.5237 23.5955 27.4495C21.9633 28.6778 20.1 28.7043 18.136 27.7792C16.106 26.8229 14.1416 24.8932 12.8407 22.6004L4.43291 7.78138Z" fill="#0A0B1D"/>
<path d="M38.8361 43.2575C36.6504 43.2575 34.1573 42.7518 32.074 41.6055L33.7816 38.0993C35.3526 39.0096 37.1626 39.7176 39.0752 39.7176C40.3729 39.7176 41.0218 39.3804 41.0218 38.605C41.0218 37.9982 40.5779 37.6948 39.6558 37.2565L36.8211 36.0428C34.328 34.964 33.2693 33.4132 33.2693 31.3903C33.2693 28.3561 35.4209 26.6705 39.3825 26.6705C41.1926 26.6705 43.1393 27.075 44.9835 27.7493L43.5832 31.2218C42.1489 30.6149 40.5779 30.1429 39.1435 30.1429C37.914 30.1429 37.5383 30.5138 37.5383 31.0869C37.5383 31.6938 37.9481 32.0309 39.041 32.5029L41.8756 33.7166C44.0955 34.6268 45.3592 35.9417 45.3592 38.2679C45.3592 41.7067 42.7636 43.2575 38.8361 43.2575Z" fill="#0A0B1D"/>
<path d="M51.9153 49.4945H47.7487V27.1762H51.9153V29.3675H51.9836C52.974 27.7493 54.6816 26.6705 57.243 26.6705C61.3755 26.6705 64.8248 29.6372 64.8248 34.964C64.8248 40.2907 61.3755 43.2575 57.243 43.2575C54.6816 43.2575 52.974 42.1787 51.9836 40.5604H51.9153V49.4945ZM56.1843 39.3467C58.7116 39.3467 60.4533 37.5936 60.4533 34.964C60.4533 32.3343 58.7116 30.5812 56.1843 30.5812C53.6571 30.5812 51.9153 32.3343 51.9153 34.964C51.9153 37.5936 53.6571 39.3467 56.1843 39.3467Z" fill="#0A0B1D"/>
<path d="M75.3463 26.6705C80.3667 26.6705 84.0893 30.0755 84.0893 34.964C84.0893 39.8524 80.3667 43.2575 75.3463 43.2575C70.326 43.2575 66.6034 39.8524 66.6034 34.964C66.6034 30.0755 70.326 26.6705 75.3463 26.6705ZM75.3463 30.5812C72.7849 30.5812 70.9066 32.3006 70.9066 34.964C70.9066 37.6273 72.7849 39.3467 75.3463 39.3467C77.9078 39.3467 79.752 37.6273 79.752 34.964C79.752 32.3006 77.9078 30.5812 75.3463 30.5812Z" fill="#FAF862"/>
<path d="M95.0844 27.1762V30.6486H91.84V37.1891C91.84 38.4365 92.2839 38.9422 93.5134 38.9422H94.2306V42.7855H92.3864C89.4152 42.7855 87.6393 41.3021 87.6393 38.1668V30.6486H84.7363V27.1762H87.6393V20.9392H91.84V27.1762H95.0844Z" fill="#0A0B1D"/>
<path d="M97.6111 19.1523H101.812V42.7518H97.6111V19.1523Z" fill="#0A0B1D"/>
<path d="M105.409 19.3546H110.19V23.9059H105.409V19.3546ZM109.883 42.7518H105.682V27.1762H109.883V42.7518Z" fill="#0A0B1D"/>
<path d="M121.882 50.0002C120.106 50.0002 117.749 49.6968 115.461 49.2585L116.212 45.314C118.501 45.8534 120.379 46.0894 121.711 46.0894C124.511 46.0894 125.638 45.1117 125.638 42.0101V40.5604H125.57C124.58 42.0101 122.94 43.1564 120.276 43.1564C116.144 43.1564 112.729 40.2233 112.729 34.964C112.729 29.6372 116.178 26.6705 120.311 26.6705C122.872 26.6705 124.58 27.7493 125.57 29.3675H125.638V27.1762H129.805V42.7518C129.737 48.2808 126.595 50.0002 121.882 50.0002ZM121.369 39.3467C123.897 39.3467 125.638 37.5936 125.638 34.964C125.638 32.3343 123.897 30.5812 121.369 30.5812C118.842 30.5812 117.1 32.3343 117.1 34.964C117.1 37.5936 118.842 39.3467 121.369 39.3467Z" fill="#0A0B1D"/>
<path d="M133.498 19.1523H137.698V29.4012H137.767C138.859 27.6819 140.567 26.6705 142.889 26.6705C146.305 26.6705 148.832 28.5584 148.832 33.1434V42.7518H144.631V34.1211C144.631 31.5926 143.436 30.5138 141.353 30.5138C139.235 30.5138 137.698 31.7612 137.698 35.1325V42.7518H133.498V19.1523Z" fill="#0A0B1D"/>
<path d="M160.487 27.1762V30.6486H157.243V37.1891C157.243 38.4365 157.687 38.9422 158.916 38.9422H159.633V42.7855H157.789C154.818 42.7855 153.042 41.3021 153.042 38.1668V30.6486H150.139V27.1762H153.042V20.9392H157.243V27.1762H160.487Z" fill="#0A0B1D"/>
<path d="M75.4751 32.0659C77.3288 32.0659 78.7034 33.2441 78.7034 34.9355C78.7034 36.6269 77.3288 37.8051 75.4751 37.8051C73.6214 37.8051 72.2468 36.6269 72.2468 34.9355C72.2468 33.2441 73.6214 32.0659 75.4751 32.0659Z" fill="#0A0B1D"/>
</svg>
