<svg width="482" height="150" viewBox="0 0 482 150" fill="none" xmlns="http://www.w3.org/2000/svg">
<path d="M74.766 87.2788C83.6848 80.5666 89.2839 70.9809 92.3893 62.1589C95.6305 52.9513 90.1704 43.6852 81.6374 38.9447L26.6265 7.918C20.5894 4.51302 12.9556 6.21808 8.94107 11.8682C5.89565 16.1543 5.60755 21.8161 8.20217 26.3892L33.4257 70.8465C42.2432 86.3876 60.4892 98.0233 74.766 87.2788Z" fill="#FAF862"/>
<path fill-rule="evenodd" clip-rule="evenodd" d="M3.9107 8.29423C-0.522675 14.5338 -0.942079 22.776 2.83505 29.4333L28.0586 73.8905C32.9734 82.5532 40.6121 90.3524 49.4185 94.5007C58.4231 98.7423 69.0946 99.2674 78.4749 92.2079C88.6358 84.5609 94.8279 73.8091 98.2079 64.2069C102.782 51.2133 94.8057 39.2118 84.6508 33.5612L29.6563 2.54375C20.8678 -2.41306 9.75494 0.0690812 3.9107 8.29423ZM13.5672 23.3442C12.1551 20.8553 12.3119 17.7739 13.9693 15.4412C16.1543 12.3662 20.3089 11.4382 23.5946 13.2913L78.6401 44.3375C85.5425 48.1722 88.4744 54.6961 86.5687 60.1099C83.7379 68.1519 78.7317 76.5715 71.0551 82.3488C66.1586 86.0338 60.5686 86.1133 54.6767 83.3379C48.5865 80.4691 42.6933 74.68 38.7907 67.8015L13.5672 23.3442Z" fill="#0A0B1D"/>
<path d="M116.777 129.772C110.22 129.772 102.74 128.255 96.4906 124.817L101.613 114.298C106.326 117.029 111.757 119.153 117.494 119.153C121.388 119.153 123.334 118.141 123.334 115.815C123.334 113.994 122.002 113.084 119.236 111.769L110.732 108.128C103.253 104.892 100.077 100.239 100.077 94.1708C100.077 85.0681 106.531 80.0111 118.416 80.0111C123.847 80.0111 129.687 81.2248 135.219 83.2476L131.019 93.6651C126.715 91.8446 122.002 90.4286 117.699 90.4286C114.011 90.4286 112.884 91.5412 112.884 93.2605C112.884 95.0811 114.113 96.0925 117.392 97.5085L125.896 101.15C132.555 103.88 136.346 107.825 136.346 114.804C136.346 125.12 128.56 129.772 116.777 129.772Z" fill="#0A0B1D"/>
<path d="M156.015 148.483H143.515V81.5282H156.015V88.1024H156.22C159.191 83.2476 164.314 80.0111 171.998 80.0111C184.395 80.0111 194.744 88.9115 194.744 104.892C194.744 120.872 184.395 129.772 171.998 129.772C164.314 129.772 159.191 126.536 156.22 121.681H156.015V148.483ZM168.822 118.04C176.404 118.04 181.629 112.781 181.629 104.892C181.629 97.0028 176.404 91.7434 168.822 91.7434C161.24 91.7434 156.015 97.0028 156.015 104.892C156.015 112.781 161.24 118.04 168.822 118.04Z" fill="#0A0B1D"/>
<path d="M226.308 80.0111C241.369 80.0111 252.537 90.2263 252.537 104.892C252.537 119.557 241.369 129.772 226.308 129.772C211.247 129.772 200.079 119.557 200.079 104.892C200.079 90.2263 211.247 80.0111 226.308 80.0111ZM226.308 91.7434C218.624 91.7434 212.989 96.9016 212.989 104.892C212.989 112.882 218.624 118.04 226.308 118.04C233.992 118.04 239.525 112.882 239.525 104.892C239.525 96.9016 233.992 91.7434 226.308 91.7434Z" fill="white"/>
<path d="M285.523 81.5282V91.9457H275.789V111.567C275.789 115.309 277.121 116.826 280.81 116.826H282.961V128.356H277.429C268.515 128.356 263.187 123.906 263.187 114.5V91.9457H254.478V81.5282H263.187V62.8172H275.789V81.5282H285.523Z" fill="#0A0B1D"/>
<path d="M293.103 57.4567H305.705V128.255H293.103V57.4567Z" fill="#0A0B1D"/>
<path d="M316.497 58.0635H330.841V71.7175H316.497V58.0635ZM329.919 128.255H317.316V81.5282H329.919V128.255Z" fill="#0A0B1D"/>
<path d="M365.914 150.001C360.587 150.001 353.517 149.09 346.653 147.775L348.907 135.942C355.771 137.56 361.406 138.268 365.402 138.268C373.804 138.268 377.185 135.335 377.185 126.03V121.681H376.98C374.009 126.03 369.091 129.469 361.099 129.469C348.702 129.469 338.456 120.67 338.456 104.892C338.456 88.9115 348.804 80.0111 361.201 80.0111C368.886 80.0111 374.009 83.2476 376.98 88.1024H377.185V81.5282H389.684V128.255C389.48 144.842 380.053 150.001 365.914 150.001ZM364.378 118.04C371.959 118.04 377.185 112.781 377.185 104.892C377.185 97.0028 371.959 91.7434 364.378 91.7434C356.796 91.7434 351.571 97.0028 351.571 104.892C351.571 112.781 356.796 118.04 364.378 118.04Z" fill="#0A0B1D"/>
<path d="M400.763 57.4567H413.365V88.2035H413.57C416.848 83.0453 421.971 80.0111 428.938 80.0111C439.184 80.0111 446.766 85.675 446.766 99.4301V128.255H434.164V102.363C434.164 94.7777 430.578 91.5412 424.328 91.5412C417.975 91.5412 413.365 95.2834 413.365 105.397V128.255H400.763V57.4567Z" fill="#0A0B1D"/>
<path d="M481.732 81.5282V91.9457H471.998V111.567C471.998 115.309 473.33 116.826 477.019 116.826H479.17V128.356H473.637C464.724 128.356 459.396 123.906 459.396 114.5V91.9457H450.687V81.5282H459.396V62.8172H471.998V81.5282H481.732Z" fill="#0A0B1D"/>
<path d="M226.695 96.1979C232.256 96.1979 236.38 99.7324 236.38 104.807C236.38 109.881 232.256 113.415 226.695 113.415C221.134 113.415 217.01 109.881 217.01 104.807C217.01 99.7324 221.134 96.1979 226.695 96.1979Z" fill="#0A0B1D"/>
</svg>
