<svg width="360" height="48" viewBox="0 0 360 48" fill="none" xmlns="http://www.w3.org/2000/svg">
<path d="M38.5608 18.579C37.4376 17.9238 36.034 18.2982 35.3788 19.4211C35.2384 19.6552 35.1918 19.8892 35.1448 20.123H23.7731C23.7264 19.7019 23.6327 19.2808 23.4453 18.9063L29.9968 15.1158C30.6986 15.9114 31.9155 16.1454 32.8981 15.5839C34.0213 14.9288 34.3958 13.5248 33.7403 12.4019C33.0851 11.2787 31.6811 10.9042 30.5582 11.5597C29.5753 12.1212 29.1542 13.2911 29.5287 14.3207L22.9773 18.1112C22.7432 17.7834 22.4158 17.456 22.0881 17.2219L27.7507 7.44135C28.3591 7.6284 29.061 7.6284 29.6694 7.25431C30.7926 6.59916 31.1671 5.19515 30.5116 4.07228C29.8565 2.94906 28.4525 2.5746 27.3296 3.2301C26.2064 3.88524 25.8319 5.28925 26.4874 6.41213C26.6278 6.64618 26.7681 6.83322 26.9555 6.97359L21.2929 16.7065C20.9185 16.5195 20.4974 16.4258 20.0763 16.3788V12.5413C21.1525 12.3072 21.948 11.3713 21.948 10.2481C21.948 8.93782 20.9184 7.90829 19.6081 7.90829C18.2978 7.90829 17.2683 8.93782 17.2683 10.2481C17.2683 11.3713 18.0638 12.3073 19.14 12.5413V16.3788C18.7189 16.4255 18.2978 16.5192 17.9233 16.7065L10.1082 3.1354C10.436 2.80766 10.623 2.33989 10.623 1.82508C10.623 0.842179 9.82752 0 8.79795 0C7.76837 0 6.97286 0.795507 6.97286 1.82508C6.97286 2.80799 7.76837 3.65017 8.79795 3.65017C8.93831 3.65017 9.12568 3.60349 9.26605 3.60349L17.0812 17.1746C16.7534 17.4087 16.426 17.7361 16.1919 18.0638L12.8692 16.1451C13.1969 15.1156 12.8225 13.9456 11.8396 13.3841C10.7164 12.729 9.31276 13.1034 8.6576 14.2263C8.00246 15.3495 8.37687 16.7532 9.49978 17.4084C10.4827 17.9698 11.6992 17.7361 12.4011 16.9403L15.7239 18.859C15.5368 19.2334 15.4431 19.6545 15.3961 20.0757L3.55649 20.076C3.36944 19.2805 2.66726 18.719 1.82508 18.719C0.842179 18.719 0 19.5145 0 20.5441C0 21.527 0.795508 22.3692 1.82508 22.3692C2.66726 22.3692 3.36938 21.8077 3.55649 21.0123H15.3961C15.4428 21.4333 15.5365 21.8544 15.7239 22.2289L12.4011 24.1477C11.6993 23.3521 10.4824 23.1181 9.49978 23.6795C8.37657 24.3347 8.00211 25.7387 8.6576 26.8616C9.31275 27.9848 10.7168 28.3592 11.8396 27.7038C12.8225 27.1423 13.2436 25.9724 12.8692 24.9428L16.1919 23.0241C16.426 23.3518 16.7534 23.6325 17.0812 23.9133L11.6523 33.3663C11.5119 33.3196 11.3245 33.2726 11.1842 33.2726C10.2013 33.2726 9.35909 34.0681 9.35909 35.0977C9.35909 36.0806 10.1546 36.9228 11.1842 36.9228C12.2137 36.9228 13.0093 36.1273 13.0093 35.0977C13.0093 34.5829 12.8222 34.1618 12.4945 33.8341L17.923 24.4747C18.2974 24.6617 18.7185 24.7554 19.1397 24.8024V30.9798C18.0634 31.2138 17.2679 32.1497 17.2679 33.2729C17.2679 34.5832 18.2975 35.6128 19.6078 35.6128C20.9181 35.6128 21.9476 34.5832 21.9476 33.2729C21.9476 32.1497 21.1521 31.2138 20.0759 30.9798V24.7558C20.497 24.7091 20.9181 24.6154 21.2926 24.428L28.8269 37.5312C28.3588 37.9523 28.0314 38.5607 28.0314 39.2626C28.0314 40.5729 29.0609 41.6025 30.3712 41.6025C31.6815 41.6025 32.7111 40.5729 32.7111 39.2626C32.7111 37.9523 31.6815 36.9228 30.3712 36.9228C30.1372 36.9228 29.8564 36.9694 29.6224 37.0631L22.0881 23.96C22.4158 23.7259 22.7432 23.3985 22.9773 23.0707L26.7212 25.2236C26.6745 25.3639 26.6275 25.5513 26.6275 25.6917C26.6275 26.6746 27.423 27.5168 28.4525 27.5168C29.4821 27.5168 30.2776 26.7212 30.2776 25.6917C30.2776 24.7088 29.4821 23.8666 28.4525 23.8666C27.9378 23.8666 27.5167 24.0536 27.1889 24.3814L23.4451 22.2285C23.6321 21.8541 23.7258 21.433 23.7728 21.0119H35.0977C35.2381 21.667 35.6125 22.2285 36.2209 22.5562C37.3441 23.2113 38.7478 22.8369 39.403 21.714C40.0581 20.6374 39.6837 19.2341 38.5608 18.579ZM19.608 22.3225C18.6722 22.3225 17.8766 21.5736 17.8766 20.5911C17.8766 19.6552 18.6255 18.8597 19.608 18.8597C20.591 18.8597 21.3395 19.6085 21.3395 20.5911C21.3395 21.5269 20.5439 22.3225 19.608 22.3225Z" fill="white"/>
<path d="M50.4735 37.9113V6.79307H61.8694C64.0776 6.79307 65.906 7.15773 67.3546 7.88707C68.8031 8.60627 69.887 9.58378 70.6062 10.8196C71.3254 12.0453 71.685 13.428 71.685 14.9677C71.685 16.2643 71.4469 17.3583 70.9709 18.2497C70.4948 19.131 69.8566 19.84 69.0563 20.3769C68.2662 20.9037 67.3951 21.2886 66.4429 21.5317V21.8356C67.4761 21.8862 68.484 22.2205 69.4666 22.8384C70.4593 23.4462 71.2798 24.3123 71.9281 25.4367C72.5764 26.5611 72.9005 27.9286 72.9005 29.5392C72.9005 31.1295 72.5258 32.5578 71.7762 33.824C71.0367 35.0801 69.892 36.0779 68.3422 36.8173C66.7924 37.5467 64.812 37.9113 62.4012 37.9113H50.4735ZM55.1686 33.8848H61.9453C64.1941 33.8848 65.8047 33.4492 66.7772 32.5781C67.7496 31.7069 68.2358 30.618 68.2358 29.3113C68.2358 28.3287 67.9877 27.4272 67.4913 26.6067C66.995 25.7862 66.2859 25.1328 65.3641 24.6466C64.4524 24.1603 63.3686 23.9172 62.1125 23.9172H55.1686V33.8848ZM55.1686 20.2554H61.4591C62.5126 20.2554 63.4597 20.0528 64.3005 19.6476C65.1514 19.2424 65.825 18.6751 66.3213 17.9458C66.8278 17.2063 67.0811 16.3352 67.0811 15.3324C67.0811 14.0459 66.6303 12.9671 65.7288 12.0959C64.8272 11.2248 63.4445 10.7892 61.5807 10.7892H55.1686V20.2554Z" fill="#F2F2F2"/>
<path d="M78.1047 37.9113V14.5726H82.6478V37.9113H78.1047ZM80.399 10.9715C79.6089 10.9715 78.9302 10.7082 78.363 10.1814C77.8058 9.64456 77.5273 9.00639 77.5273 8.26693C77.5273 7.51734 77.8058 6.87917 78.363 6.35243C78.9302 5.81555 79.6089 5.54712 80.399 5.54712C81.1891 5.54712 81.8628 5.81555 82.4199 6.35243C82.9871 6.87917 83.2708 7.51734 83.2708 8.26693C83.2708 9.00639 82.9871 9.64456 82.4199 10.1814C81.8628 10.7082 81.1891 10.9715 80.399 10.9715Z" fill="#F2F2F2"/>
<path d="M98.545 47.1496C96.6913 47.1496 95.0959 46.9065 93.7588 46.4202C92.4318 45.934 91.3479 45.2908 90.5071 44.4905C89.6664 43.6903 89.0383 42.8141 88.623 41.8619L92.528 40.2513C92.8015 40.697 93.1662 41.168 93.622 41.6644C94.088 42.1709 94.716 42.6014 95.5061 42.9559C96.3064 43.3104 97.3345 43.4877 98.5906 43.4877C100.313 43.4877 101.736 43.0673 102.86 42.2266C103.985 41.3959 104.547 40.069 104.547 38.2456V33.6569H104.258C103.985 34.1532 103.59 34.7053 103.073 35.3131C102.566 35.9209 101.868 36.4476 100.976 36.8933C100.085 37.339 98.9249 37.5619 97.4966 37.5619C95.653 37.5619 93.9917 37.1314 92.5128 36.2703C91.044 35.3992 89.8791 34.1178 89.0181 32.4261C88.1672 30.7244 87.7417 28.6326 87.7417 26.1508C87.7417 23.6691 88.1621 21.5418 89.0029 19.7691C89.8538 17.9965 91.0187 16.6391 92.4976 15.697C93.9765 14.7448 95.653 14.2687 97.527 14.2687C98.9755 14.2687 100.146 14.5119 101.037 14.9981C101.928 15.4742 102.622 16.0313 103.119 16.6695C103.625 17.3076 104.015 17.8698 104.289 18.3561H104.623V14.5726H109.075V38.428C109.075 40.4336 108.609 42.0797 107.677 43.3661C106.745 44.6526 105.484 45.6048 103.893 46.2227C102.313 46.8406 100.53 47.1496 98.545 47.1496ZM98.4994 33.7936C99.8062 33.7936 100.91 33.4897 101.812 32.882C102.723 32.2641 103.412 31.3828 103.878 30.2381C104.354 29.0834 104.592 27.7007 104.592 26.09C104.592 24.5199 104.359 23.1372 103.893 21.942C103.428 20.7467 102.744 19.8147 101.842 19.1462C100.941 18.4675 99.8264 18.1281 98.4994 18.1281C97.1319 18.1281 95.9923 18.4827 95.0807 19.1918C94.169 19.8907 93.4802 20.8429 93.0142 22.0483C92.5584 23.2537 92.3305 24.601 92.3305 26.09C92.3305 27.6196 92.5635 28.9618 93.0294 30.1166C93.4954 31.2714 94.1842 32.1729 95.0959 32.8212C96.0177 33.4695 97.1522 33.7936 98.4994 33.7936Z" fill="#F2F2F2"/>
<path d="M123.905 38.3672C122.02 38.3672 120.339 37.886 118.86 36.9237C117.391 35.9513 116.236 34.5686 115.396 32.7756C114.565 30.9725 114.15 28.8099 114.15 26.2876C114.15 23.7653 114.57 21.6077 115.411 19.8147C116.262 18.0218 117.427 16.6492 118.906 15.697C120.385 14.7448 122.061 14.2687 123.935 14.2687C125.384 14.2687 126.548 14.5119 127.43 14.9981C128.321 15.4742 129.01 16.0313 129.496 16.6695C129.993 17.3076 130.377 17.8698 130.651 18.3561H130.924V6.79307H135.468V37.9113H131.031V34.2799H130.651C130.377 34.7762 129.982 35.3435 129.466 35.9816C128.959 36.6198 128.26 37.1769 127.369 37.653C126.478 38.1291 125.323 38.3672 123.905 38.3672ZM124.907 34.4926C126.214 34.4926 127.318 34.1482 128.22 33.4594C129.131 32.7604 129.82 31.793 130.286 30.5572C130.762 29.3214 131 27.883 131 26.242C131 24.6212 130.767 23.2031 130.301 21.9875C129.835 20.772 129.152 19.8249 128.25 19.1462C127.349 18.4675 126.234 18.1281 124.907 18.1281C123.54 18.1281 122.4 18.4827 121.489 19.1918C120.577 19.9008 119.888 20.8682 119.422 22.0939C118.966 23.3196 118.738 24.7023 118.738 26.242C118.738 27.802 118.971 29.2049 119.437 30.4509C119.903 31.6968 120.592 32.6844 121.504 33.4138C122.426 34.133 123.56 34.4926 124.907 34.4926Z" fill="#F2F2F2"/>
<path d="M148.744 38.428C147.265 38.428 145.928 38.1545 144.732 37.6075C143.537 37.0503 142.59 36.245 141.891 35.1915C141.202 34.138 140.858 32.8465 140.858 31.3169C140.858 30.0001 141.111 28.9162 141.618 28.0653C142.124 27.2144 142.808 26.5408 143.669 26.0445C144.53 25.5481 145.492 25.1733 146.556 24.9201C147.619 24.6668 148.703 24.4744 149.807 24.3427C151.205 24.1806 152.34 24.0489 153.211 23.9476C154.082 23.8362 154.715 23.6589 155.11 23.4158C155.505 23.1727 155.703 22.7776 155.703 22.2306V22.1243C155.703 20.7973 155.328 19.7691 154.578 19.0398C153.839 18.3105 152.735 17.9458 151.266 17.9458C149.736 17.9458 148.531 18.2851 147.65 18.9638C146.779 19.6324 146.176 20.3769 145.842 21.1974L141.572 20.225C142.078 18.8068 142.818 17.6622 143.79 16.791C144.773 15.9097 145.902 15.2716 147.179 14.8765C148.455 14.4713 149.797 14.2687 151.205 14.2687C152.137 14.2687 153.125 14.3802 154.168 14.603C155.222 14.8157 156.204 15.2108 157.116 15.7882C158.038 16.3656 158.792 17.1911 159.38 18.2649C159.967 19.3285 160.261 20.7112 160.261 22.413V37.9113H155.824V34.7205H155.642C155.348 35.308 154.908 35.8854 154.32 36.4527C153.733 37.0199 152.978 37.491 152.056 37.8658C151.134 38.2406 150.03 38.428 148.744 38.428ZM149.731 34.7813C150.987 34.7813 152.061 34.5331 152.953 34.0368C153.854 33.5404 154.538 32.8921 155.004 32.0919C155.48 31.2815 155.718 30.4154 155.718 29.4936V26.4851C155.556 26.6472 155.242 26.7991 154.776 26.9409C154.32 27.0726 153.798 27.1891 153.211 27.2904C152.623 27.3816 152.051 27.4677 151.494 27.5487C150.937 27.6196 150.471 27.6804 150.096 27.731C149.215 27.8425 148.409 28.0299 147.68 28.2932C146.961 28.5566 146.384 28.9365 145.948 29.4328C145.523 29.919 145.31 30.5673 145.31 31.3777C145.31 32.5021 145.725 33.353 146.556 33.9304C147.386 34.4977 148.445 34.7813 149.731 34.7813Z" fill="#F2F2F2"/>
<path d="M177.207 14.5726V18.2193H164.459V14.5726H177.207ZM167.877 8.98107H172.421V31.0586C172.421 31.9399 172.552 32.6034 172.816 33.0491C173.079 33.4847 173.418 33.7835 173.834 33.9456C174.259 34.0975 174.72 34.1735 175.216 34.1735C175.581 34.1735 175.9 34.1482 176.174 34.0975C176.447 34.0469 176.66 34.0064 176.812 33.976L177.632 37.729C177.369 37.8303 176.994 37.9316 176.508 38.0329C176.022 38.1443 175.414 38.2051 174.685 38.2152C173.489 38.2355 172.375 38.0228 171.342 37.5771C170.308 37.1314 169.473 36.4425 168.835 35.5106C168.196 34.5787 167.877 33.4087 167.877 32.0007V8.98107Z" fill="#F2F2F2"/>
<path d="M189.024 38.428C187.545 38.428 186.208 38.1545 185.013 37.6075C183.818 37.0503 182.871 36.245 182.172 35.1915C181.483 34.138 181.138 32.8465 181.138 31.3169C181.138 30.0001 181.392 28.9162 181.898 28.0653C182.405 27.2144 183.088 26.5408 183.949 26.0445C184.81 25.5481 185.773 25.1733 186.836 24.9201C187.9 24.6668 188.984 24.4744 190.088 24.3427C191.486 24.1806 192.62 24.0489 193.491 23.9476C194.363 23.8362 194.996 23.6589 195.391 23.4158C195.786 23.1727 195.983 22.7776 195.983 22.2306V22.1243C195.983 20.7973 195.609 19.7691 194.859 19.0398C194.119 18.3105 193.015 17.9458 191.547 17.9458C190.017 17.9458 188.812 18.2851 187.93 18.9638C187.059 19.6324 186.456 20.3769 186.122 21.1974L181.852 20.225C182.359 18.8068 183.098 17.6622 184.071 16.791C185.053 15.9097 186.183 15.2716 187.459 14.8765C188.736 14.4713 190.078 14.2687 191.486 14.2687C192.418 14.2687 193.405 14.3802 194.449 14.603C195.502 14.8157 196.485 15.2108 197.396 15.7882C198.318 16.3656 199.073 17.1911 199.66 18.2649C200.248 19.3285 200.542 20.7112 200.542 22.413V37.9113H196.105V34.7205H195.923C195.629 35.308 195.188 35.8854 194.601 36.4527C194.013 37.0199 193.258 37.491 192.337 37.8658C191.415 38.2406 190.311 38.428 189.024 38.428ZM190.012 34.7813C191.268 34.7813 192.342 34.5331 193.233 34.0368C194.135 33.5404 194.818 32.8921 195.284 32.0919C195.761 31.2815 195.999 30.4154 195.999 29.4936V26.4851C195.836 26.6472 195.522 26.7991 195.056 26.9409C194.601 27.0726 194.079 27.1891 193.491 27.2904C192.904 27.3816 192.332 27.4677 191.774 27.5487C191.217 27.6196 190.751 27.6804 190.377 27.731C189.495 27.8425 188.69 28.0299 187.961 28.2932C187.241 28.5566 186.664 28.9365 186.229 29.4328C185.803 29.919 185.59 30.5673 185.59 31.3777C185.59 32.5021 186.006 33.353 186.836 33.9304C187.667 34.4977 188.725 34.7813 190.012 34.7813Z" fill="#F2F2F2"/>
<path d="M211.136 6.79307V37.9113H206.593V6.79307H211.136Z" fill="#F2F2F2"/>
<path d="M221.791 6.79307V37.9113H217.248V6.79307H221.791Z" fill="#F2F2F2"/>
<path d="M227.903 37.9113V14.5726H232.446V37.9113H227.903ZM230.197 10.9715C229.407 10.9715 228.729 10.7082 228.161 10.1814C227.604 9.64456 227.326 9.00639 227.326 8.26693C227.326 7.51734 227.604 6.87917 228.161 6.35243C228.729 5.81555 229.407 5.54712 230.197 5.54712C230.988 5.54712 231.661 5.81555 232.218 6.35243C232.786 6.87917 233.069 7.51734 233.069 8.26693C233.069 9.00639 232.786 9.64456 232.218 10.1814C231.661 10.7082 230.988 10.9715 230.197 10.9715Z" fill="#F2F2F2"/>
<path d="M248.344 47.1496C246.49 47.1496 244.894 46.9065 243.557 46.4202C242.23 45.934 241.146 45.2908 240.306 44.4905C239.465 43.6903 238.837 42.8141 238.422 41.8619L242.326 40.2513C242.6 40.697 242.965 41.168 243.421 41.6644C243.886 42.1709 244.514 42.6014 245.305 42.9559C246.105 43.3104 247.133 43.4877 248.389 43.4877C250.111 43.4877 251.534 43.0673 252.659 42.2266C253.783 41.3959 254.345 40.069 254.345 38.2456V33.6569H254.057C253.783 34.1532 253.388 34.7053 252.871 35.3131C252.365 35.9209 251.666 36.4476 250.775 36.8933C249.883 37.339 248.723 37.5619 247.295 37.5619C245.451 37.5619 243.79 37.1314 242.311 36.2703C240.842 35.3992 239.678 34.1178 238.817 32.4261C237.966 30.7244 237.54 28.6326 237.54 26.1508C237.54 23.6691 237.961 21.5418 238.801 19.7691C239.652 17.9965 240.817 16.6391 242.296 15.697C243.775 14.7448 245.451 14.2687 247.325 14.2687C248.774 14.2687 249.944 14.5119 250.835 14.9981C251.727 15.4742 252.421 16.0313 252.917 16.6695C253.424 17.3076 253.813 17.8698 254.087 18.3561H254.421V14.5726H258.873V38.428C258.873 40.4336 258.407 42.0797 257.475 43.3661C256.543 44.6526 255.282 45.6048 253.692 46.2227C252.112 46.8406 250.329 47.1496 248.344 47.1496ZM248.298 33.7936C249.605 33.7936 250.709 33.4897 251.61 32.882C252.522 32.2641 253.211 31.3828 253.677 30.2381C254.153 29.0834 254.391 27.7007 254.391 26.09C254.391 24.5199 254.158 23.1372 253.692 21.942C253.226 20.7467 252.542 19.8147 251.641 19.1462C250.739 18.4675 249.625 18.1281 248.298 18.1281C246.93 18.1281 245.791 18.4827 244.879 19.1918C243.967 19.8907 243.279 20.8429 242.813 22.0483C242.357 23.2537 242.129 24.601 242.129 26.09C242.129 27.6196 242.362 28.9618 242.828 30.1166C243.294 31.2714 243.983 32.1729 244.894 32.8212C245.816 33.4695 246.951 33.7936 248.298 33.7936Z" fill="#F2F2F2"/>
<path d="M275.025 38.3824C272.726 38.3824 270.745 37.8911 269.084 36.9085C267.433 35.9158 266.156 34.523 265.255 32.73C264.364 30.9269 263.918 28.8149 263.918 26.3939C263.918 24.0033 264.364 21.8964 265.255 20.073C266.156 18.2497 267.413 16.8265 269.023 15.8034C270.644 14.7803 272.538 14.2687 274.706 14.2687C276.023 14.2687 277.299 14.4865 278.535 14.9221C279.771 15.3577 280.88 16.0414 281.863 16.9734C282.845 17.9053 283.62 19.1158 284.187 20.6048C284.755 22.0838 285.038 23.8818 285.038 25.9989V27.6095H266.486V24.2059H280.586C280.586 23.0106 280.343 21.9521 279.857 21.0303C279.371 20.0984 278.687 19.364 277.806 18.8271C276.934 18.2902 275.911 18.0218 274.736 18.0218C273.46 18.0218 272.346 18.3358 271.393 18.9638C270.451 19.5817 269.722 20.3921 269.206 21.395C268.699 22.3877 268.446 23.4665 268.446 24.6314V27.2904C268.446 28.8504 268.719 30.1774 269.266 31.2714C269.823 32.3654 270.598 33.2011 271.591 33.7784C272.584 34.3457 273.744 34.6293 275.071 34.6293C275.932 34.6293 276.717 34.5078 277.426 34.2647C278.135 34.0114 278.748 33.6366 279.264 33.1403C279.781 32.6439 280.176 32.0311 280.449 31.3017L284.749 32.0767C284.405 33.3429 283.787 34.4521 282.896 35.4043C282.014 36.3463 280.905 37.0807 279.568 37.6075C278.241 38.1241 276.727 38.3824 275.025 38.3824Z" fill="#F2F2F2"/>
<path d="M294.622 24.054V37.9113H290.079V14.5726H294.44V18.3713H294.728C295.265 17.1354 296.106 16.1427 297.251 15.3931C298.405 14.6435 299.859 14.2687 301.612 14.2687C303.202 14.2687 304.595 14.603 305.79 15.2716C306.985 15.93 307.912 16.9126 308.571 18.2193C309.229 19.526 309.558 21.1417 309.558 23.0663V37.9113H305.015V23.6133C305.015 21.9217 304.574 20.5998 303.693 19.6476C302.812 18.6853 301.601 18.2041 300.062 18.2041C299.008 18.2041 298.071 18.432 297.251 18.8879C296.44 19.3437 295.797 20.0123 295.321 20.8935C294.855 21.7647 294.622 22.8182 294.622 24.054Z" fill="#F2F2F2"/>
<path d="M325.482 38.3824C323.223 38.3824 321.278 37.8708 319.647 36.8477C318.027 35.8145 316.781 34.3913 315.91 32.5781C315.038 30.7649 314.603 28.6883 314.603 26.3483C314.603 23.978 315.048 21.8862 315.94 20.073C316.831 18.2497 318.087 16.8265 319.708 15.8034C321.329 14.7803 323.238 14.2687 325.436 14.2687C327.209 14.2687 328.789 14.598 330.177 15.2564C331.565 15.9047 332.684 16.8164 333.535 17.9914C334.396 19.1664 334.908 20.539 335.07 22.1091H330.648C330.405 21.0151 329.848 20.073 328.977 19.2829C328.116 18.4928 326.961 18.0978 325.512 18.0978C324.246 18.0978 323.137 18.432 322.185 19.1006C321.243 19.759 320.508 20.7011 319.982 21.9268C319.455 23.1423 319.192 24.5807 319.192 26.242C319.192 27.9438 319.45 29.4126 319.966 30.6484C320.483 31.8842 321.212 32.8415 322.154 33.5201C323.107 34.1988 324.226 34.5382 325.512 34.5382C326.373 34.5382 327.153 34.3812 327.852 34.0671C328.561 33.743 329.154 33.2821 329.63 32.6844C330.116 32.0868 330.456 31.3676 330.648 30.5268H335.07C334.908 32.0361 334.416 33.3834 333.596 34.5686C332.775 35.7537 331.676 36.6857 330.299 37.3643C328.931 38.043 327.326 38.3824 325.482 38.3824Z" fill="#F2F2F2"/>
<path d="M349.987 38.3824C347.687 38.3824 345.707 37.8911 344.046 36.9085C342.395 35.9158 341.118 34.523 340.217 32.73C339.325 30.9269 338.88 28.8149 338.88 26.3939C338.88 24.0033 339.325 21.8964 340.217 20.073C341.118 18.2497 342.374 16.8265 343.985 15.8034C345.606 14.7803 347.5 14.2687 349.668 14.2687C350.985 14.2687 352.261 14.4865 353.497 14.9221C354.733 15.3577 355.842 16.0414 356.824 16.9734C357.807 17.9053 358.582 19.1158 359.149 20.6048C359.716 22.0838 360 23.8818 360 25.9989V27.6095H341.448V24.2059H355.548C355.548 23.0106 355.305 21.9521 354.819 21.0303C354.333 20.0984 353.649 19.364 352.767 18.8271C351.896 18.2902 350.873 18.0218 349.698 18.0218C348.422 18.0218 347.308 18.3358 346.355 18.9638C345.413 19.5817 344.684 20.3921 344.167 21.395C343.661 22.3877 343.408 23.4665 343.408 24.6314V27.2904C343.408 28.8504 343.681 30.1774 344.228 31.2714C344.785 32.3654 345.56 33.2011 346.553 33.7784C347.546 34.3457 348.706 34.6293 350.032 34.6293C350.893 34.6293 351.679 34.5078 352.388 34.2647C353.097 34.0114 353.71 33.6366 354.226 33.1403C354.743 32.6439 355.138 32.0311 355.411 31.3017L359.711 32.0767C359.367 33.3429 358.749 34.4521 357.858 35.4043C356.976 36.3463 355.867 37.0807 354.53 37.6075C353.203 38.1241 351.689 38.3824 349.987 38.3824Z" fill="#F2F2F2"/>
</svg>
