<svg width="316" height="87" viewBox="0 0 316 87" fill="none" xmlns="http://www.w3.org/2000/svg">
<path d="M48.5003 14.8986L51.8953 11.5935C58.5624 5.10332 69.4164 4.94268 76.1219 11.3955C78.6626 13.846 80.3512 17.0098 80.9501 20.4424C81.5491 23.875 81.0283 27.4041 79.461 30.5338C78.7093 32.0288 78.4561 33.7151 78.7364 35.3571C79.0171 36.999 79.8173 38.5147 81.0256 39.6924C83.2477 37.5243 85.0088 34.9513 86.2088 32.1205C87.4089 29.2895 88.0245 26.2562 88.0201 23.1937C88.0153 20.1313 87.3915 17.0996 86.1831 14.2721C84.9747 11.4444 83.2058 8.87633 80.9776 6.7144C71.6013 -2.36176 56.3818 -2.18115 47.0317 6.92051L14.6709 38.4221L12.0105 35.8323C5.23041 29.2321 5.18719 18.4433 12.0869 11.9603C14.6409 9.56797 17.8947 8.00628 21.3992 7.49078C24.9038 6.97529 28.4863 7.53141 31.6524 9.08236C33.0974 9.80324 34.7396 10.0611 36.3442 9.81918C37.9488 9.57724 39.4339 8.84785 40.5873 7.73519L40.6698 7.65529C40.6955 7.63047 40.7158 7.60094 40.7297 7.56838C40.7436 7.53587 40.7508 7.50098 40.7508 7.46575C40.7508 7.43052 40.7436 7.39563 40.7297 7.36312C40.7158 7.33061 40.6955 7.30108 40.6698 7.27622C36.2158 3.04927 30.2472 0.674999 24.0269 0.655803C17.8066 0.636611 11.8226 2.97399 7.34114 7.17337C-2.31237 16.2453 -2.27787 31.331 7.21017 40.5674L39.5614 72.0605L36.1248 75.4059C29.4578 81.8961 18.6033 82.0568 11.8983 75.604C9.35754 73.1536 7.66908 69.9896 7.07008 66.5571C6.47113 63.1246 6.99168 59.5956 8.55869 56.4657C9.31048 54.9706 9.56385 53.2843 9.28345 51.6427C9.00301 50.0006 8.20277 48.4847 6.99452 47.3071C4.77259 49.4753 3.01126 52.0481 1.81112 54.8788C0.610978 57.71 -0.0044354 60.7431 2.40632e-05 63.8058C0.00448354 66.8682 0.628729 69.9 1.83711 72.7273C3.04549 75.5551 4.81433 78.1232 7.04254 80.2851C16.4184 89.3616 31.6384 89.1815 40.9885 80.0794L73.3912 48.5357L76.0616 51.1352C82.7286 57.6254 82.8937 68.1916 76.265 74.7188C73.7479 77.1925 70.4977 78.8359 66.9717 79.4194C63.4457 80.0024 59.8205 79.4955 56.6053 77.9698C55.0691 77.2376 53.336 76.9907 51.6487 77.2643C49.9614 77.5376 48.4038 78.3174 47.1941 79.4946C49.4214 81.6577 52.0643 83.3725 54.9722 84.5407C57.8805 85.709 60.9962 86.3082 64.1424 86.304C67.2882 86.2993 70.4026 85.6916 73.307 84.5153C76.2118 83.3389 78.8499 81.6169 81.0706 79.4479C90.3945 70.3207 90.209 55.5044 80.8593 46.4027L48.5003 14.8986ZM44.3923 67.3557L19.5031 43.1266L43.6676 19.6034L68.5568 43.8325L44.3923 67.3557Z" fill="white"/>
<path d="M280.727 63.2312V66.1212H308.49V72.9848H271.595V49.8652H308.417V56.7289H280.727V59.6188H303.376V63.2312H280.727Z" fill="white"/>
<path d="M266.794 63.3394C266.672 65.6273 265.832 67.5419 264.274 69.0832C262.715 70.6245 260.414 71.7805 257.369 72.5512C254.35 73.3218 250.526 73.7071 245.899 73.7071C242.368 73.7071 239.202 73.5145 236.401 73.1291C233.6 72.7679 231.214 72.1417 229.241 71.2507C227.269 70.3355 225.759 69.0953 224.711 67.5299C223.664 65.9645 223.141 63.9897 223.141 61.6055C223.141 59.2213 223.664 57.2344 224.711 55.645C225.759 54.0314 227.269 52.755 229.241 51.8158C231.214 50.8525 233.6 50.1661 236.401 49.7567C239.202 49.3473 242.368 49.1426 245.899 49.1426C250.526 49.1426 254.362 49.564 257.406 50.4069C260.45 51.2258 262.751 52.4419 264.31 54.0555C265.869 55.669 266.709 57.6318 266.831 59.9438H257.333C257.041 59.1731 256.505 58.4988 255.726 57.9208C254.946 57.3187 253.777 56.8491 252.219 56.5119C250.66 56.1748 248.553 56.0062 245.899 56.0062C242.782 56.0062 240.249 56.1989 238.301 56.5842C236.352 56.9454 234.928 57.5355 234.027 58.3543C233.126 59.1731 232.675 60.2568 232.675 61.6055C232.675 62.8337 233.126 63.8331 234.027 64.6038C234.928 65.3744 236.352 65.9404 238.301 66.3016C240.249 66.6629 242.782 66.8435 245.899 66.8435C248.553 66.8435 250.648 66.687 252.182 66.3739C253.741 66.0608 254.91 65.6394 255.689 65.1095C256.468 64.5556 257.004 63.9656 257.296 63.3394H266.794Z" fill="white"/>
<path d="M189.292 69.4808V64.0621H214.279V69.4808H189.292ZM181.11 72.9848L196.781 49.8652H206.936L222.754 72.9848H212.708L199.156 52.2856H204.598L191.155 72.9848H181.11Z" fill="white"/>
<path d="M152.82 67.0243V60.7025H171.048C171.779 60.7025 172.388 60.5942 172.875 60.3774C173.386 60.1366 173.642 59.6429 173.642 58.8963C173.642 58.1257 173.386 57.632 172.875 57.4152C172.388 57.1985 171.779 57.0901 171.048 57.0901H153.404V72.9848H144.272V49.8652H169.624C171.45 49.8652 173.155 49.9977 174.738 50.2626C176.345 50.5034 177.746 50.949 178.939 51.5992C180.132 52.2494 181.07 53.1646 181.752 54.3447C182.434 55.5247 182.774 57.0419 182.774 58.8963C182.774 60.7507 182.434 62.2198 181.752 63.3035C181.07 64.3872 180.132 65.194 178.939 65.7238C177.746 66.2537 176.345 66.6029 174.738 66.7714C173.155 66.94 171.45 67.0243 169.624 67.0243H152.82Z" fill="white"/>
<path d="M104.503 64.4957H114.476C114.647 65.0014 115.146 65.4349 115.974 65.7961C116.802 66.1333 117.91 66.3982 119.298 66.5909C120.711 66.7595 122.342 66.8437 124.193 66.8437C126.02 66.8437 127.457 66.7956 128.504 66.6992C129.575 66.5788 130.33 66.3862 130.769 66.1213C131.207 65.8323 131.426 65.4469 131.426 64.9653C131.426 64.5077 131.073 64.1585 130.367 63.9177C129.66 63.6528 128.406 63.4721 126.604 63.3758C124.802 63.2795 122.269 63.2313 119.006 63.2313C116.571 63.2313 114.464 63.1229 112.686 62.9062C110.933 62.6654 109.484 62.3041 108.339 61.8225C107.219 61.3167 106.391 60.6906 105.855 59.944C105.319 59.1733 105.051 58.2582 105.051 57.1985C105.051 55.3682 105.672 53.8631 106.914 52.683C108.181 51.4789 110.08 50.5878 112.613 50.0098C115.17 49.4077 118.361 49.1067 122.184 49.1067C127.785 49.1067 132.059 49.9135 135.006 51.527C137.977 53.1165 139.463 55.4164 139.463 58.4268H130.001C129.88 57.632 129.125 57.03 127.737 56.6206C126.348 56.1871 124.376 55.9703 121.819 55.9703C119.286 55.9703 117.399 56.1148 116.157 56.4038C114.939 56.6928 114.33 57.1865 114.33 57.8849C114.33 58.2461 114.5 58.5351 114.841 58.7519C115.182 58.9686 115.767 59.1493 116.595 59.2938C117.447 59.4142 118.641 59.4985 120.175 59.5466C121.709 59.5948 123.657 59.6189 126.02 59.6189C128.625 59.6189 130.842 59.7513 132.668 60.0162C134.495 60.2571 135.968 60.6304 137.088 61.1361C138.233 61.6418 139.061 62.2921 139.572 63.0868C140.084 63.8575 140.339 64.7726 140.339 65.8323C140.339 67.6626 139.755 69.1557 138.586 70.3117C137.417 71.4677 135.566 72.3226 133.033 72.8765C130.501 73.4304 127.189 73.7074 123.097 73.7074C120.784 73.7074 118.653 73.5749 116.704 73.31C114.781 73.0451 113.064 72.6598 111.554 72.154C110.044 71.6242 108.765 70.986 107.718 70.2394C106.671 69.4688 105.867 68.6138 105.307 67.6746C104.771 66.7113 104.503 65.6516 104.503 64.4957Z" fill="white"/>
<path d="M276.304 14.5916H314.296V21.4552H276.304V14.5916ZM290.734 20.9856H299.866V37.7111H290.734V20.9856Z" fill="white"/>
<path d="M273.385 14.5916V21.4552H245.695V24.5257H268.344V30.6669H245.695V37.7111H236.563V14.5916H273.385Z" fill="white"/>
<path d="M200.173 34.2071V28.7884H225.16V34.2071H200.173ZM191.99 37.7111L207.662 14.5916H217.817L233.635 37.7111H223.589L210.036 17.0119H215.479L202.036 37.7111H191.99Z" fill="white"/>
<path d="M149.162 37.7111V14.5916H177.399C179.616 14.5916 181.6 14.8444 183.354 15.3502C185.132 15.8318 186.532 16.6506 187.555 17.8066C188.602 18.9626 189.126 20.54 189.126 22.5389C189.126 23.8635 188.882 24.9592 188.395 25.8262C187.908 26.6932 187.238 27.3675 186.386 27.8492C185.533 28.3308 184.559 28.68 183.463 28.8968C182.368 29.1135 181.223 29.246 180.03 29.2942L177.363 28.7884C180.261 28.8125 182.489 28.9329 184.048 29.1497C185.631 29.3664 186.727 29.7638 187.336 30.3418C187.969 30.8957 188.285 31.7025 188.285 32.7621V37.7111H179.153V33.8458C179.153 33.1233 179.007 32.5815 178.714 32.2202C178.447 31.8349 177.838 31.57 176.888 31.4255C175.963 31.281 174.526 31.2088 172.577 31.2088H158.294V37.7111H149.162ZM158.294 25.176H177.399C178.13 25.176 178.739 25.0556 179.226 24.8147C179.737 24.5739 179.993 24.1163 179.993 23.442C179.993 22.8159 179.737 22.3944 179.226 22.1777C178.739 21.9368 178.13 21.8164 177.399 21.8164H158.294V25.176Z" fill="white"/>
<path d="M144.361 28.0663C144.239 30.3541 143.399 32.2687 141.84 33.81C140.282 35.3513 137.98 36.5073 134.936 37.278C131.916 38.0486 128.093 38.4339 123.466 38.4339C119.934 38.4339 116.768 38.2413 113.968 37.8559C111.167 37.4947 108.78 36.8685 106.808 35.9775C104.835 35.0623 103.325 33.8221 102.278 32.2567C101.231 30.6913 100.707 28.7165 100.707 26.3323C100.707 23.9481 101.231 21.9612 102.278 20.3718C103.325 18.7582 104.835 17.4818 106.808 16.5426C108.78 15.5793 111.167 14.8929 113.968 14.4835C116.768 14.0741 119.934 13.8694 123.466 13.8694C128.093 13.8694 131.928 14.2908 134.973 15.1337C138.017 15.9526 140.318 17.1687 141.877 18.7823C143.435 20.3958 144.276 22.3586 144.397 24.6706H134.899C134.607 23.8999 134.071 23.2256 133.292 22.6476C132.513 22.0455 131.344 21.5759 129.785 21.2387C128.227 20.9016 126.12 20.733 123.466 20.733C120.348 20.733 117.816 20.9257 115.867 21.311C113.919 21.6722 112.494 22.2623 111.593 23.0811C110.692 23.8999 110.242 24.9836 110.242 26.3323C110.242 27.5605 110.692 28.56 111.593 29.3306C112.494 30.1013 113.919 30.6672 115.867 31.0284C117.816 31.3897 120.348 31.5703 123.466 31.5703C126.12 31.5703 128.214 31.4138 129.749 31.1007C131.307 30.7876 132.476 30.3662 133.256 29.8363C134.035 29.2824 134.571 28.6924 134.863 28.0663H144.361Z" fill="white"/>
</svg>
