<svg width="352" height="120" viewBox="0 0 352 120" fill="none" xmlns="http://www.w3.org/2000/svg">
<path d="M55.3863 73.8919L47.6245 60.2231L55.6297 46.3378L51.1431 38.6813L40.5073 57.1296C39.413 59.0278 39.4053 61.3646 40.4872 63.27L50.9611 81.7149L55.3863 73.8919Z" fill="white"/>
<path d="M62.2327 77.4501L57.8498 85.1983L78.1834 85.065C80.372 85.0507 82.3891 83.8756 83.4835 81.9774L94.4927 62.8815C95.5871 60.9833 95.5947 58.6464 94.5128 56.7411L83.8294 37.927C82.7261 35.984 80.6604 34.7897 78.4285 34.8044L57.8877 34.939L62.3939 42.6289L77.5754 42.5294L87.3755 59.7879L77.2496 77.3517L62.2327 77.4501Z" fill="white"/>
<path d="M52.5428 25.8179L87.3415 25.5898L106.689 59.6613L86.7968 94.1647L52.6512 94.3885L48.2684 102.137L87.7306 101.878C89.9192 101.864 91.9363 100.689 93.0306 98.7905L113.806 62.7549C114.9 60.8567 114.908 58.5198 113.826 56.6145L93.5955 20.9874C92.4922 19.0444 90.4265 17.8501 88.1946 17.8647L48.0366 18.1279L52.5428 25.8179Z" fill="white"/>
<path d="M41.4447 22.1307L21.194 57.2561C20.0997 59.1543 20.092 61.4912 21.1739 63.3965L41.2872 98.8169L45.7123 90.9939L28.3112 60.3497L45.9313 29.7871L41.4447 22.1307Z" fill="white"/>
<path d="M35.7032 12.3328L7.9434 60.4831L35.5102 109.03L31.085 116.853L0.806107 63.53C-0.27582 61.6247 -0.268184 59.2878 0.826171 57.3896L31.2166 4.67627L35.7032 12.3328Z" fill="white"/>
<path d="M42.1539 8.08885L97.6408 7.72521L127.057 59.5278L96.8652 111.896L42.5467 112.252L38.1638 120L97.799 119.609C99.9877 119.595 102.005 118.42 103.099 116.522L134.174 62.6214C135.268 60.7232 135.276 58.3863 134.194 56.481L103.895 3.12279C102.791 1.1798 100.726 -0.0144965 98.4939 0.000132876L37.6476 0.398898L42.1539 8.08885Z" fill="white"/>
<path fill-rule="evenodd" clip-rule="evenodd" d="M348.426 66.3792L348.424 66.3829C346.037 70.5825 342.781 73.8153 338.668 76.0174L338.661 76.0212C334.59 78.1828 330.077 79.2451 325.17 79.2451C320.231 79.2451 315.698 78.1744 311.623 75.9928L311.618 75.9899L311.613 75.987C307.52 73.7681 304.277 70.5292 301.892 66.3337L301.889 66.3286L301.886 66.3235C299.482 62.0421 298.341 56.9113 298.341 51.0369C298.341 45.1327 299.48 39.9909 301.888 35.7219L301.89 35.7191C304.275 31.5052 307.522 28.2691 311.623 26.0809C315.698 23.8993 320.231 22.8286 325.17 22.8286C330.079 22.8286 334.594 23.9001 338.665 26.0794C342.783 28.2668 346.04 31.5029 348.426 35.7191C350.852 39.9888 352 45.1318 352 51.0369C352 56.9441 350.851 62.0946 348.426 66.3792ZM346.415 36.8572C344.233 33.0005 341.287 30.0875 337.578 28.1181C333.869 26.1323 329.733 25.1394 325.17 25.1394C320.575 25.1394 316.423 26.1323 312.714 28.1181C309.021 30.0875 306.084 33.0005 303.901 36.8572C301.735 40.6976 300.652 45.4241 300.652 51.0369C300.652 56.6168 301.735 61.3351 303.901 65.1918C306.084 69.0322 309.021 71.9534 312.714 73.9556C316.423 75.9414 320.575 76.9343 325.17 76.9343C329.733 76.9343 333.869 75.9496 337.578 73.9803C341.287 71.9945 344.233 69.0814 346.415 65.2411C348.598 61.3844 349.689 56.6496 349.689 51.0369C349.689 45.4241 348.598 40.6976 346.415 36.8572ZM332.244 44.2327L332.24 44.2224C331.589 42.4992 330.679 41.3404 329.577 40.586L329.565 40.5781L329.554 40.5701C328.473 39.8112 327.058 39.3649 325.17 39.3649C323.284 39.3649 321.855 39.8109 320.753 40.5766L320.749 40.5795C319.657 41.3348 318.742 42.4993 318.072 44.2327C317.415 45.9606 317.043 48.2051 317.043 51.0369C317.043 53.8651 317.414 56.1191 318.072 57.8664C318.738 59.5742 319.651 60.7444 320.751 61.5203C321.853 62.2706 323.284 62.7088 325.17 62.7088C327.063 62.7088 328.482 62.2681 329.564 61.5212C330.68 60.7454 331.592 59.5769 332.243 57.8702L332.246 57.8611C332.919 56.1175 333.297 53.8659 333.297 51.0369C333.297 48.2069 332.919 45.9665 332.248 44.243L332.244 44.2327ZM319.435 63.4194C317.892 62.3362 316.719 60.7607 315.914 58.6929C315.127 56.6086 314.733 54.0566 314.733 51.0369C314.733 48.0171 315.127 45.4733 315.914 43.4055C316.719 41.3212 317.892 39.7457 319.435 38.6789C320.994 37.5958 322.906 37.0542 325.17 37.0542C327.435 37.0542 329.339 37.5958 330.882 38.6789C332.441 39.7457 333.614 41.3212 334.402 43.4055C335.206 45.4733 335.608 48.0171 335.608 51.0369C335.608 54.0566 335.206 56.6086 334.402 58.6929C333.614 60.7607 332.441 62.3362 330.882 63.4194C329.339 64.4862 327.435 65.0195 325.17 65.0195C322.906 65.0195 320.994 64.4862 319.435 63.4194Z" fill="white"/>
<path fill-rule="evenodd" clip-rule="evenodd" d="M237.9 78.5558H218.218L236.385 23.5179H258.435L276.602 78.5558H256.919L254.006 68.9058H240.814L237.9 78.5558ZM236.184 76.2451H221.414L238.055 25.8287H256.764L273.406 76.2451H258.635L255.722 66.5951H239.098L236.184 76.2451ZM247.607 39.7129H247.213L242.189 56.3543H252.631L247.607 39.7129ZM249.519 54.0435L247.41 47.0561L245.3 54.0435H249.519Z" fill="white"/>
<path fill-rule="evenodd" clip-rule="evenodd" d="M148.162 78.5558V23.5179H169.674C175.158 23.5179 180.027 24.5859 184.2 26.8161C188.39 29.0304 191.639 32.2434 193.906 36.4129C196.198 40.5799 197.292 45.4844 197.292 51.0369C197.292 56.5892 196.206 61.4991 193.934 65.6799L193.932 65.6836C191.666 69.834 188.437 73.0458 184.283 75.2775L184.276 75.2812C180.122 77.4942 175.294 78.5558 169.871 78.5558H148.162ZM191.879 37.522C189.828 33.7473 186.906 30.8588 183.115 28.8566C179.341 26.838 174.86 25.8287 169.674 25.8287H150.473V76.2451H169.871C174.992 76.2451 179.431 75.244 183.189 73.2418C186.947 71.2232 189.852 68.3347 191.904 64.5765C193.955 60.8018 194.981 56.2886 194.981 51.0369C194.981 45.7852 193.947 41.2802 191.879 37.522ZM174.793 61.3185L174.8 61.3151C176.011 60.7656 176.983 59.814 177.698 58.2819L177.701 58.2748L177.705 58.2677C178.43 56.7408 178.884 54.3918 178.884 51.0369C178.884 47.6856 178.423 45.3424 177.687 43.8203L177.683 43.8132L177.68 43.8061C176.958 42.286 175.964 41.3269 174.698 40.7683L174.691 40.7652C173.262 40.1286 171.388 39.7589 168.985 39.7589H166.471V62.3149H169.379C171.634 62.3149 173.413 61.9503 174.793 61.3185ZM164.16 64.6257V37.4481H168.985C171.611 37.4481 173.826 37.8502 175.632 38.6544C177.453 39.4585 178.832 40.8453 179.767 42.8147C180.719 44.7841 181.195 47.5248 181.195 51.0369C181.195 54.549 180.727 57.2897 179.792 59.2591C178.873 61.2285 177.527 62.6153 175.755 63.4194C173.999 64.2236 171.873 64.6257 169.379 64.6257H164.16Z" fill="white"/>
<path d="M347.796 97.8354C347.708 97.0586 347.347 96.4568 346.713 96.0301C346.078 95.598 345.279 95.3819 344.317 95.3819C343.627 95.3819 343.031 95.4913 342.528 95.7101C342.024 95.9234 341.633 96.2189 341.354 96.5963C341.081 96.9683 340.944 97.3923 340.944 97.8682C340.944 98.2676 341.037 98.6122 341.223 98.9022C341.414 99.1921 341.663 99.4355 341.97 99.6325C342.282 99.8239 342.615 99.9853 342.971 100.117C343.326 100.242 343.668 100.346 343.997 100.428L345.638 100.855C346.174 100.986 346.724 101.164 347.287 101.389C347.851 101.613 348.373 101.908 348.854 102.275C349.336 102.641 349.724 103.095 350.02 103.637C350.321 104.178 350.471 104.827 350.471 105.582C350.471 106.534 350.225 107.379 349.732 108.117C349.246 108.856 348.537 109.438 347.607 109.865C346.683 110.292 345.564 110.505 344.251 110.505C342.993 110.505 341.904 110.305 340.985 109.906C340.066 109.507 339.347 108.941 338.827 108.208C338.307 107.469 338.02 106.594 337.965 105.582H340.509C340.558 106.189 340.755 106.695 341.1 107.1C341.45 107.499 341.896 107.797 342.437 107.994C342.985 108.186 343.584 108.281 344.235 108.281C344.951 108.281 345.589 108.169 346.147 107.945C346.71 107.715 347.153 107.398 347.476 106.993C347.799 106.583 347.96 106.104 347.96 105.557C347.96 105.059 347.818 104.652 347.533 104.334C347.254 104.017 346.874 103.755 346.393 103.547C345.917 103.339 345.378 103.155 344.776 102.997L342.79 102.455C341.445 102.089 340.378 101.55 339.59 100.839C338.808 100.128 338.417 99.1866 338.417 98.0159C338.417 97.0476 338.679 96.2024 339.204 95.4803C339.73 94.7582 340.441 94.1975 341.338 93.7981C342.235 93.3933 343.247 93.1909 344.374 93.1909C345.512 93.1909 346.516 93.3906 347.386 93.7899C348.261 94.1893 348.95 94.7391 349.453 95.4393C349.957 96.1341 350.219 96.9328 350.241 97.8354H347.796Z" fill="white"/>
<path d="M309.573 93.4207H312.65L318.001 106.484H318.198L323.548 93.4207H326.625V110.226H324.212V98.0651H324.056L319.1 110.202H317.098L312.142 98.0569H311.986V110.226H309.573V93.4207Z" fill="white"/>
<path d="M286.361 110.226V93.4207H292.351C293.653 93.4207 294.734 93.6449 295.593 94.0935C296.457 94.5421 297.102 95.163 297.529 95.9562C297.956 96.744 298.169 97.6548 298.169 98.6888C298.169 99.7172 297.953 100.623 297.521 101.405C297.094 102.182 296.449 102.786 295.584 103.218C294.726 103.651 293.645 103.867 292.343 103.867H287.805V101.684H292.113C292.934 101.684 293.601 101.566 294.116 101.331C294.635 101.096 295.015 100.754 295.256 100.305C295.497 99.8567 295.617 99.3179 295.617 98.6888C295.617 98.0542 295.494 97.5044 295.248 97.0394C295.007 96.5744 294.627 96.2188 294.107 95.9727C293.593 95.721 292.918 95.5952 292.081 95.5952H288.897V110.226H286.361ZM294.657 102.644L298.809 110.226H295.921L291.851 102.644H294.657Z" fill="white"/>
<path d="M274.881 101.823C274.881 103.618 274.553 105.16 273.896 106.451C273.24 107.737 272.34 108.727 271.197 109.422C270.059 110.111 268.765 110.456 267.315 110.456C265.86 110.456 264.561 110.111 263.418 109.422C262.28 108.727 261.383 107.734 260.726 106.443C260.07 105.152 259.741 103.612 259.741 101.823C259.741 100.029 260.07 98.4891 260.726 97.2036C261.383 95.9125 262.28 94.9223 263.418 94.2331C264.561 93.5383 265.86 93.1909 267.315 93.1909C268.765 93.1909 270.059 93.5383 271.197 94.2331C272.34 94.9223 273.24 95.9125 273.896 97.2036C274.553 98.4891 274.881 100.029 274.881 101.823ZM272.37 101.823C272.37 100.456 272.149 99.3042 271.706 98.3688C271.268 97.4278 270.666 96.7167 269.9 96.2353C269.14 95.7484 268.278 95.505 267.315 95.505C266.347 95.505 265.483 95.7484 264.722 96.2353C263.962 96.7167 263.36 97.4278 262.917 98.3688C262.479 99.3042 262.261 100.456 262.261 101.823C262.261 103.191 262.479 104.345 262.917 105.286C263.36 106.222 263.962 106.933 264.722 107.42C265.483 107.901 266.347 108.142 267.315 108.142C268.278 108.142 269.14 107.901 269.9 107.42C270.666 106.933 271.268 106.222 271.706 105.286C272.149 104.345 272.37 103.191 272.37 101.823Z" fill="white"/>
<path d="M238.425 110.226V93.4207H248.846V95.6034H240.96V100.724H248.099V102.898H240.96V110.226H238.425Z" fill="white"/>
<path d="M214.226 95.6034V93.4207H227.232V95.6034H221.989V110.226H219.461V95.6034H214.226Z" fill="white"/>
<path d="M193.962 110.226H191.27L197.318 93.4207H200.247L206.295 110.226H203.603L198.852 96.4732H198.721L193.962 110.226ZM194.413 103.645H203.144V105.779H194.413V103.645Z" fill="white"/>
<path d="M170.323 110.226V93.4207H172.858V108.043H180.473V110.226H170.323Z" fill="white"/>
<path d="M147.223 110.226V93.4207H153.213C154.521 93.4207 155.604 93.6586 156.463 94.1346C157.322 94.6105 157.965 95.2615 158.391 96.0875C158.818 96.9081 159.031 97.8326 159.031 98.8611C159.031 99.895 158.815 100.825 158.383 101.651C157.956 102.472 157.311 103.123 156.446 103.604C155.588 104.08 154.507 104.318 153.205 104.318H149.086V102.168H152.975C153.801 102.168 154.472 102.026 154.986 101.741C155.5 101.451 155.878 101.058 156.118 100.56C156.359 100.062 156.479 99.4957 156.479 98.8611C156.479 98.2265 156.359 97.6631 156.118 97.1707C155.878 96.6784 155.497 96.2927 154.978 96.0137C154.463 95.7347 153.785 95.5952 152.943 95.5952H149.759V110.226H147.223Z" fill="white"/>
</svg>
