<svg width="227" height="41" viewBox="0 0 227 41" fill="none" xmlns="http://www.w3.org/2000/svg">
<path d="M0 40.3566V0H7.8282V40.3566H0ZM3.622 0H11.3334L20.1547 22.3424L20.0379 31.8174H16.8832L3.622 0ZM18.9863 31.8174L18.8695 22.3424L27.7492 0H35.4022L22.1994 31.8174H18.9863ZM31.196 40.3566V0H39.0242V40.3566H31.196Z" fill="white"/>
<path d="M55.3615 40.3566V0H63.4818V40.3566H55.3615ZM59.2172 40.3566V33.1626H83.2276V40.3566H59.2172ZM59.2172 23.3952V16.5521H80.1313V23.3952H59.2172ZM59.2172 7.19401V0H82.9355V7.19401H59.2172Z" fill="white"/>
<path d="M98.0008 40.3566V0H106.121V40.3566H98.0008ZM101.857 40.3566V33.1626H125.867V40.3566H101.857ZM101.857 23.3952V16.5521H122.771V23.3952H101.857ZM101.857 7.19401V0H125.575V7.19401H101.857Z" fill="white"/>
<path d="M136.96 7.19401V0H167.864V7.19401H136.96ZM148.352 40.3566V0H156.472V40.3566H148.352Z" fill="white"/>
<path d="M175.575 0H184.923L195.204 18.1897L195.029 24.9743H190.648L175.575 0ZM190.005 40.3566V22.8103H198.125V40.3566H190.005ZM193.16 18.1897L203.441 0H212.555L197.483 24.9743H193.452L193.16 18.1897Z" fill="white"/>
<path d="M217.302 36.204C217.302 34.8003 217.75 33.65 218.646 32.7532C219.581 31.8174 220.749 31.3495 222.151 31.3495C223.592 31.3495 224.761 31.8174 225.656 32.7532C226.552 33.65 227 34.8003 227 36.204C227 37.5687 226.552 38.719 225.656 39.6548C224.761 40.5516 223.592 41 222.151 41C220.749 41 219.581 40.5516 218.646 39.6548C217.75 38.719 217.302 37.5687 217.302 36.204Z" fill="white"/>
</svg>
