<svg width="238" height="133" viewBox="0 0 238 133" fill="none" xmlns="http://www.w3.org/2000/svg">
<path d="M213.023 132.245V130.032C212.329 131.659 210.862 132.512 208.942 132.512C205.955 132.512 203.902 130.619 203.902 126.805V124.751C203.902 120.964 205.955 119.071 208.942 119.071C210.942 119.071 212.329 119.977 213.023 121.498V112.777H214.676V132.245H213.023ZM209.262 120.484C206.702 120.484 205.555 122.164 205.555 124.725V126.832C205.555 129.445 206.702 131.099 209.289 131.099C211.609 131.099 213.023 129.605 213.023 126.698V124.671C213.023 122.111 211.582 120.484 209.262 120.484Z" fill="white"/>
<path d="M198.418 128.405C198.152 131.099 196.205 132.512 193.324 132.512C190.097 132.512 187.99 130.619 187.99 126.805V124.751C187.99 120.964 190.097 119.071 193.351 119.071C196.471 119.071 198.472 120.964 198.472 124.751V125.845H189.671C189.671 126.298 189.671 126.752 189.697 127.178C189.777 129.605 190.924 131.126 193.378 131.126C193.644 131.126 193.884 131.126 194.125 131.099C195.725 130.885 196.685 129.952 196.845 128.405H198.418ZM189.671 124.538L189.751 124.751H196.925C196.845 121.764 195.778 120.431 193.351 120.431C190.844 120.431 189.697 122.058 189.671 124.538Z" fill="white"/>
<path d="M183.798 130.992V132.378H182.065C179.371 132.378 178.224 131.258 178.224 128.698V120.724H176.171V119.337H178.224V115.497H179.878V119.337H183.798V120.724H179.878V128.725C179.878 130.245 180.518 130.992 182.331 130.992H183.798Z" fill="white"/>
<path d="M170.239 116.671C169.519 116.671 168.985 116.164 168.985 115.497C168.985 114.83 169.519 114.324 170.239 114.324C170.959 114.324 171.492 114.83 171.492 115.497C171.492 116.164 170.959 116.671 170.239 116.671ZM169.412 132.246V119.338H171.065V132.246H169.412Z" fill="white"/>
<path d="M154.243 124.751V132.246H152.589V119.337H154.243V121.844C155.043 120.004 156.616 119.071 158.536 119.071C161.417 119.071 162.91 120.538 162.91 123.658V132.246H161.283V123.898C161.283 121.631 160.323 120.484 158.056 120.484C155.923 120.484 154.243 122.111 154.243 124.751Z" fill="white"/>
<path d="M144.407 113.577H146.06V126.139C146.06 130.246 143.606 132.513 139.739 132.513C135.926 132.513 133.445 130.246 133.445 126.139V113.577H135.099V126.165C135.099 129.072 136.619 131.099 139.739 131.099C142.913 131.099 144.407 129.072 144.407 126.165V113.577Z" fill="white"/>
<path d="M113.623 120.378C111.543 120.378 110.716 121.124 110.716 122.565C110.716 123.925 111.409 124.378 113.25 124.831L114.93 125.205C117.837 125.872 118.93 126.645 118.93 128.779C118.93 131.152 117.277 132.512 114.05 132.512C110.769 132.512 108.982 131.152 108.716 128.085H110.263C110.449 130.299 111.676 131.232 114.13 131.232C116.37 131.232 117.303 130.379 117.303 128.885C117.303 127.392 116.69 127.018 114.37 126.485L112.609 126.085C110.236 125.578 109.089 124.698 109.089 122.591C109.089 120.538 110.449 119.071 113.65 119.071C116.957 119.071 118.503 120.538 118.637 123.151H117.09C116.903 121.231 115.89 120.378 113.623 120.378Z" fill="white"/>
<path d="M98.5973 120.378C96.5171 120.378 95.6903 121.124 95.6903 122.565C95.6903 123.925 96.3837 124.378 98.2239 124.831L99.9041 125.205C102.811 125.872 103.905 126.645 103.905 128.779C103.905 131.152 102.251 132.512 99.024 132.512C95.7436 132.512 93.9568 131.152 93.6901 128.085H95.2369C95.4236 130.299 96.6504 131.232 99.104 131.232C101.344 131.232 102.278 130.379 102.278 128.885C102.278 127.392 101.664 127.018 99.344 126.485L97.5838 126.085C95.2102 125.578 94.0634 124.698 94.0634 122.591C94.0634 120.538 95.4236 119.071 98.624 119.071C101.931 119.071 103.478 120.538 103.611 123.151H102.064C101.878 121.231 100.864 120.378 98.5973 120.378Z" fill="white"/>
<path d="M88.5269 128.405C88.2602 131.099 86.3133 132.512 83.4329 132.512C80.2059 132.512 78.099 130.619 78.099 126.805V124.751C78.099 120.964 80.2059 119.071 83.4596 119.071C86.58 119.071 88.5802 120.964 88.5802 124.751V125.845H79.7792C79.7792 126.298 79.7792 126.752 79.8059 127.178C79.8859 129.605 81.0327 131.126 83.4863 131.126C83.753 131.126 83.993 131.126 84.233 131.099C85.8332 130.885 86.7933 129.952 86.9533 128.405H88.5269ZM79.7792 124.538L79.8592 124.751H87.0333C86.9533 121.764 85.8865 120.431 83.4596 120.431C80.9527 120.431 79.8059 122.058 79.7792 124.538Z" fill="white"/>
<path d="M63.4897 124.751V132.246H61.8362V119.337H63.4897V121.844C64.2898 120.004 65.8633 119.071 67.7835 119.071C70.6638 119.071 72.1574 120.538 72.1574 123.658V132.246H70.5305V123.898C70.5305 121.631 69.5704 120.484 67.3035 120.484C65.1699 120.484 63.4897 122.111 63.4897 124.751Z" fill="white"/>
<path d="M54.6602 129.338C54.6602 130.592 55.0602 130.965 56.1537 130.965H56.5271V132.379H56.0737C53.9134 132.379 53.0333 131.685 53.0333 129.285V112.777H54.6602V129.338Z" fill="white"/>
<path d="M45.9373 129.338C45.9373 130.592 46.3373 130.965 47.4308 130.965H47.8042V132.379H47.3508C45.1905 132.379 44.3104 131.685 44.3104 129.285V112.777H45.9373V129.338Z" fill="white"/>
<path d="M38.347 128.405C38.0803 131.099 36.1335 132.512 33.2531 132.512C30.0261 132.512 27.9192 130.619 27.9192 126.805V124.751C27.9192 120.964 30.0261 119.071 33.2798 119.071C36.4002 119.071 38.4004 120.964 38.4004 124.751V125.845H29.5994C29.5994 126.298 29.5994 126.752 29.6261 127.178C29.7061 129.605 30.8529 131.126 33.3065 131.126C33.5732 131.126 33.8132 131.126 34.0532 131.099C35.6534 130.885 36.6135 129.952 36.7735 128.405H38.347ZM29.5994 124.538L29.6794 124.751H36.8535C36.7735 121.764 35.7067 120.431 33.2798 120.431C30.7728 120.431 29.626 122.058 29.5994 124.538Z" fill="white"/>
<path d="M17.0953 132.246L12.0814 115.524L7.06747 132.246H5.25393L0 113.577H1.78687L6.24071 130.086L11.2546 113.577H13.1215L18.0287 130.112L22.5626 113.577H24.2694L18.9888 132.246H17.0953Z" fill="white"/>
<path d="M214.235 40.5336C208.73 40.6559 203.47 41.5123 199.188 43.1026V33.8053C203.347 31.2363 208.852 29.8906 214.602 29.8906L214.235 40.5336ZM194.539 30.013V93.3814H183.407V32.0926L194.539 30.013Z" fill="white"/>
<path d="M158.461 93.3808H147.328V2.36508L158.461 0.163086V93.3808Z" fill="white"/>
<path d="M122.382 93.3808H111.25V2.36508L122.382 0.163086V93.3808Z" fill="white"/>
<path d="M80.9207 18.1461C76.639 18.1461 73.703 15.0878 73.703 11.2955C73.703 7.50317 76.639 4.32251 80.9207 4.32251C85.08 4.32251 88.016 7.50317 88.016 11.2955C88.016 15.0878 85.08 18.1461 80.9207 18.1461ZM86.3033 93.3809H75.171V32.0921L86.3033 30.0124V93.3809Z" fill="white"/>
<path d="M44.738 33.6836C44.738 22.062 37.031 15.5783 24.1861 15.5783H3.02246V7.749C9.87311 6.89267 17.8248 6.28101 23.4521 6.28101C46.3283 6.28101 56.6043 17.4133 56.6043 32.9496C56.6043 50.0762 44.371 61.5755 21.9841 61.6978H19.4151V52.4005H21.9841C37.2757 52.2782 44.738 44.8159 44.738 33.6836ZM3.02246 93.3821V20.227H14.5218V93.3821H3.02246Z" fill="white"/>
<path d="M228.079 19.5756C222.318 19.5756 218.158 15.4418 218.158 9.78778C218.158 4.10713 222.318 0 228.079 0C233.84 0 238 4.1338 238 9.78778C238 15.4151 233.84 19.5756 228.079 19.5756ZM228.079 18.5354C233.12 18.5354 236.8 14.855 236.8 9.78778C236.8 4.80055 233.12 1.04012 228.079 1.04012C223.039 1.04012 219.358 4.80055 219.358 9.78778C219.358 14.855 223.039 18.5354 228.079 18.5354ZM233.2 7.41417H231.066C230.639 6.05402 229.546 5.2806 228.132 5.2806C225.999 5.2806 224.772 6.98746 224.772 9.81445C224.772 12.6414 225.999 14.3216 228.132 14.3216C229.493 14.3216 230.559 13.5482 231.039 12.2414H233.173C232.533 14.775 230.586 15.9751 228.212 15.9751C224.772 15.9751 222.638 13.6549 222.638 9.81445C222.638 5.97401 224.745 3.57374 228.186 3.57374C230.586 3.57374 232.64 4.90722 233.2 7.41417Z" fill="white"/>
</svg>
