<svg width="316" height="61" viewBox="0 0 316 61" fill="none" xmlns="http://www.w3.org/2000/svg">
<path d="M12.5127 47.7433C10.3402 47.7433 8.37595 47.3713 6.62008 46.6273C4.89396 45.8833 3.52498 44.8119 2.51312 43.4132C1.50125 42.0144 0.980444 40.3627 0.950684 38.458H7.64682C7.7361 39.7377 8.18251 40.7496 8.98605 41.4936C9.81934 42.2376 10.9502 42.6096 12.3788 42.6096C13.837 42.6096 14.9828 42.2674 15.8161 41.5829C16.6494 40.8686 17.066 39.946 17.066 38.8151C17.066 37.8926 16.7833 37.1337 16.2179 36.5385C15.6524 35.9433 14.9382 35.482 14.0751 35.1546C13.2418 34.7975 12.0811 34.4106 10.5931 33.9939C8.5694 33.3987 6.91768 32.8184 5.63798 32.2529C4.38803 31.6577 3.30177 30.7798 2.37919 29.6191C1.48637 28.4287 1.03997 26.8514 1.03997 24.8872C1.03997 23.042 1.50125 21.435 2.42383 20.066C3.34641 18.697 4.641 17.6554 6.30759 16.9411C7.97418 16.1971 9.87886 15.8251 12.0216 15.8251C15.2358 15.8251 17.8398 16.6137 19.8338 18.1911C21.8575 19.7386 22.9735 21.9111 23.1819 24.7086H16.3072C16.2476 23.6372 15.7863 22.7593 14.9233 22.0748C14.09 21.3606 12.974 21.0034 11.5752 21.0034C10.355 21.0034 9.37293 21.3159 8.62892 21.9409C7.91466 22.5659 7.55754 23.4736 7.55754 24.664C7.55754 25.4973 7.82538 26.1967 8.36107 26.7621C8.92652 27.2978 9.61102 27.7442 10.4146 28.1013C11.2479 28.4287 12.4085 28.8156 13.8965 29.262C15.9203 29.8572 17.572 30.4524 18.8517 31.0476C20.1314 31.6428 21.2325 32.5357 22.1551 33.7261C23.0777 34.9165 23.539 36.4789 23.539 38.4134C23.539 40.08 23.1075 41.6275 22.2444 43.056C21.3813 44.4845 20.1165 45.6303 18.4499 46.4934C16.7833 47.3267 14.8042 47.7433 12.5127 47.7433Z" fill="#16181C"/>
<path d="M36.2337 27.8335V39.7972C36.2337 40.6305 36.4272 41.2406 36.8141 41.6275C37.2307 41.9847 37.9152 42.1632 38.8675 42.1632H41.7692V47.4308H37.8408C32.5732 47.4308 29.9394 44.8714 29.9394 39.7526V27.8335H26.9931V22.6998H29.9394V16.584H36.2337V22.6998H41.7692V27.8335H36.2337Z" fill="#16181C"/>
<path d="M52.5141 26.5389C53.3176 25.2294 54.3592 24.2027 55.6389 23.4587C56.9484 22.7147 58.4364 22.3427 60.103 22.3427V28.9049H58.4513C56.4871 28.9049 54.9991 29.3662 53.9872 30.2887C53.0051 31.2113 52.5141 32.8184 52.5141 35.11V47.4308H46.2643V22.6998H52.5141V26.5389Z" fill="#16181C"/>
<path d="M87.3026 34.5296C87.3026 35.4224 87.2431 36.226 87.124 36.9402H69.0444C69.1933 38.7259 69.8182 40.1246 70.9194 41.1365C72.0205 42.1483 73.3746 42.6543 74.9817 42.6543C77.303 42.6543 78.9547 41.6573 79.9368 39.6633H86.6776C85.9633 42.0442 84.5944 44.0084 82.5706 45.5559C80.5469 47.0737 78.0619 47.8326 75.1156 47.8326C72.7348 47.8326 70.592 47.3118 68.6873 46.2702C66.8124 45.1988 65.3393 43.6959 64.2679 41.7614C63.2263 39.827 62.7054 37.595 62.7054 35.0653C62.7054 32.5059 63.2263 30.259 64.2679 28.3245C65.3095 26.3901 66.7678 24.9021 68.6427 23.8604C70.5176 22.8188 72.6752 22.298 75.1156 22.298C77.4667 22.298 79.5648 22.8039 81.41 23.8158C83.2849 24.8277 84.7283 26.2711 85.7401 28.146C86.7818 29.9911 87.3026 32.119 87.3026 34.5296ZM80.8297 32.744C80.7999 31.1369 80.2196 29.8572 79.0886 28.9049C77.9577 27.9228 76.5739 27.4317 74.937 27.4317C73.3895 27.4317 72.08 27.9079 71.0086 28.8602C69.967 29.7828 69.3272 31.0774 69.0891 32.744H80.8297Z" fill="#16181C"/>
<path d="M90.2572 34.976C90.2572 32.4761 90.7483 30.259 91.7304 28.3245C92.7423 26.3901 94.0964 24.9021 95.7927 23.8604C97.5188 22.8188 99.4384 22.298 101.551 22.298C103.397 22.298 105.004 22.67 106.373 23.414C107.771 24.1581 108.887 25.0955 109.721 26.2264V22.6998H116.015V47.4308H109.721V43.8149C108.917 44.9756 107.801 45.9428 106.373 46.7166C104.974 47.4606 103.352 47.8326 101.507 47.8326C99.4235 47.8326 97.5188 47.2969 95.7927 46.2255C94.0964 45.1542 92.7423 43.6512 91.7304 41.7168C90.7483 39.7526 90.2572 37.5057 90.2572 34.976ZM109.721 35.0653C109.721 33.5475 109.423 32.2529 108.828 31.1816C108.233 30.0804 107.429 29.2471 106.417 28.6817C105.405 28.0865 104.319 27.7888 103.158 27.7888C101.998 27.7888 100.926 28.0716 99.9443 28.637C98.9622 29.2025 98.1587 30.0358 97.5337 31.1369C96.9385 32.2083 96.6409 33.488 96.6409 34.976C96.6409 36.4641 96.9385 37.7735 97.5337 38.9044C98.1587 40.0056 98.9622 40.8537 99.9443 41.449C100.956 42.0442 102.028 42.3418 103.158 42.3418C104.319 42.3418 105.405 42.0591 106.417 41.4936C107.429 40.8984 108.233 40.0651 108.828 38.9937C109.423 37.8926 109.721 36.5831 109.721 35.0653Z" fill="#16181C"/>
<path d="M152.832 22.3427C155.868 22.3427 158.308 23.2801 160.153 25.155C162.028 27.0002 162.965 29.5894 162.965 32.9226V47.4308H156.716V33.7707C156.716 31.8363 156.225 30.3631 155.243 29.3513C154.26 28.3097 152.921 27.7888 151.225 27.7888C149.529 27.7888 148.174 28.3097 147.163 29.3513C146.18 30.3631 145.689 31.8363 145.689 33.7707V47.4308H139.44V33.7707C139.44 31.8363 138.949 30.3631 137.967 29.3513C136.984 28.3097 135.645 27.7888 133.949 27.7888C132.223 27.7888 130.854 28.3097 129.842 29.3513C128.86 30.3631 128.369 31.8363 128.369 33.7707V47.4308H122.119V22.6998H128.369V25.6907C129.172 24.6491 130.199 23.8307 131.449 23.2355C132.729 22.6403 134.127 22.3427 135.645 22.3427C137.58 22.3427 139.306 22.7593 140.824 23.5926C142.341 24.3961 143.517 25.5568 144.35 27.0746C145.154 25.6461 146.314 24.5003 147.832 23.6372C149.38 22.7742 151.046 22.3427 152.832 22.3427Z" fill="#16181C"/>
<path d="M175.146 14.3966V47.4308H168.896V14.3966H175.146Z" fill="#16181C"/>
<path d="M184.49 19.7535C183.389 19.7535 182.466 19.4112 181.722 18.7267C181.008 18.0125 180.651 17.1345 180.651 16.0929C180.651 15.0513 181.008 14.1882 181.722 13.5038C182.466 12.7895 183.389 12.4324 184.49 12.4324C185.591 12.4324 186.499 12.7895 187.213 13.5038C187.957 14.1882 188.329 15.0513 188.329 16.0929C188.329 17.1345 187.957 18.0125 187.213 18.7267C186.499 19.4112 185.591 19.7535 184.49 19.7535ZM187.57 22.6998V47.4308H181.32V22.6998H187.57Z" fill="#16181C"/>
<path d="M207.45 22.3427C210.396 22.3427 212.777 23.2801 214.592 25.155C216.408 27.0002 217.315 29.5894 217.315 32.9226V47.4308H211.066V33.7707C211.066 31.8065 210.575 30.3036 209.592 29.262C208.61 28.1906 207.271 27.6549 205.575 27.6549C203.849 27.6549 202.48 28.1906 201.468 29.262C200.486 30.3036 199.995 31.8065 199.995 33.7707V47.4308H193.745V22.6998H199.995V25.78C200.828 24.7086 201.884 23.8753 203.164 23.2801C204.474 22.6551 205.902 22.3427 207.45 22.3427Z" fill="#16181C"/>
<path d="M246.249 34.5296C246.249 35.4224 246.189 36.226 246.07 36.9402H227.99C228.139 38.7259 228.764 40.1246 229.865 41.1365C230.967 42.1483 232.321 42.6543 233.928 42.6543C236.249 42.6543 237.901 41.6573 238.883 39.6633H245.624C244.909 42.0442 243.54 44.0084 241.517 45.5559C239.493 47.0737 237.008 47.8326 234.062 47.8326C231.681 47.8326 229.538 47.3118 227.633 46.2702C225.758 45.1988 224.285 43.6959 223.214 41.7614C222.172 39.827 221.651 37.595 221.651 35.0653C221.651 32.5059 222.172 30.259 223.214 28.3245C224.255 26.3901 225.714 24.9021 227.589 23.8604C229.464 22.8188 231.621 22.298 234.062 22.298C236.413 22.298 238.511 22.8039 240.356 23.8158C242.231 24.8277 243.674 26.2711 244.686 28.146C245.728 29.9911 246.249 32.119 246.249 34.5296ZM239.776 32.744C239.746 31.1369 239.166 29.8572 238.035 28.9049C236.904 27.9228 235.52 27.4317 233.883 27.4317C232.336 27.4317 231.026 27.9079 229.955 28.8602C228.913 29.7828 228.273 31.0774 228.035 32.744H239.776Z" fill="#16181C"/>
<path d="M255.921 23.9014C255.921 12.678 255.921 7.06624 259.408 3.57957C262.894 0.0928955 268.506 0.0928955 279.729 0.0928955H292.192C303.415 0.0928955 309.027 0.0928955 312.513 3.57957C316 7.06624 316 12.678 316 23.9014V36.3636C316 47.5871 316 53.1988 312.513 56.6854C309.027 60.1721 303.415 60.1721 292.192 60.1721H279.729C268.506 60.1721 262.894 60.1721 259.408 56.6854C255.921 53.1988 255.921 47.5871 255.921 36.3636V23.9014Z" fill="#0336D0"/>
<path d="M292.333 45.7608L285.592 35.2702L279.476 45.7608H272.423L282.244 30.0472L272.289 14.6014H279.476L286.217 25.0474L292.288 14.6014H299.342L289.565 30.2704L299.52 45.7608H292.333Z" fill="white"/>
</svg>
