<svg width="330" height="37" viewBox="0 0 330 37" fill="none" xmlns="http://www.w3.org/2000/svg">
<path d="M325.279 0.876221C325.919 0.876221 326.472 1.1098 326.939 1.57694C327.406 2.04409 327.64 2.5973 327.64 3.23655C327.64 3.87581 327.406 4.42901 326.939 4.89616C326.472 5.36331 325.919 5.59688 325.279 5.59688C324.64 5.59688 324.087 5.36331 323.62 4.89616C323.153 4.42901 322.919 3.87581 322.919 3.23655C322.919 2.5973 323.153 2.04409 323.62 1.57694C324.087 1.1098 324.64 0.876221 325.279 0.876221ZM327.197 9.69059V25.6597C327.197 26.6923 327.406 27.3931 327.824 27.7619C328.267 28.1307 328.992 28.3151 330 28.3151V29.0896C329.582 29.065 328.943 29.0404 328.082 29.0158C327.246 28.9666 326.398 28.942 325.537 28.942C324.701 28.942 323.853 28.9666 322.993 29.0158C322.132 29.0404 321.493 29.065 321.075 29.0896V28.3151C322.083 28.3151 322.796 28.1307 323.214 27.7619C323.657 27.3931 323.878 26.6923 323.878 25.6597V14.1162C323.878 13.0098 323.681 12.1984 323.288 11.6821C322.894 11.1412 322.157 10.8708 321.075 10.8708V10.0963C321.862 10.17 322.624 10.2069 323.362 10.2069C324.075 10.2069 324.751 10.17 325.39 10.0963C326.054 9.99792 326.656 9.86269 327.197 9.69059Z" fill="white"/>
<path d="M306.588 0.175537V25.6597C306.588 26.6924 306.773 27.3931 307.142 27.7619C307.51 28.1307 308.137 28.3151 309.022 28.3151V29.0896C308.629 29.065 308.039 29.0404 307.252 29.0158C306.49 28.9667 305.716 28.9421 304.929 28.9421C304.093 28.9421 303.245 28.9667 302.384 29.0158C301.524 29.0404 300.884 29.065 300.466 29.0896V28.3151C301.474 28.3151 302.187 28.1307 302.605 27.7619C303.048 27.3931 303.269 26.6924 303.269 25.6597V4.60116C303.269 3.49475 303.073 2.68339 302.679 2.16707C302.286 1.62616 301.548 1.3557 300.466 1.3557V0.581218C301.253 0.654979 302.015 0.691859 302.753 0.691859C303.466 0.691859 304.142 0.654979 304.781 0.581218C305.445 0.482872 306.048 0.347645 306.588 0.175537ZM318.316 10.0963V10.8339C317.702 10.8831 317.124 11.0552 316.583 11.3502C316.042 11.6207 315.513 12.0264 314.997 12.5673L309.797 18.0255L310.313 16.9929L317.173 26.3973C317.591 26.9628 317.984 27.4054 318.353 27.725C318.747 28.0447 319.214 28.2414 319.755 28.3151V29.0896C319.484 29.065 319.054 29.0404 318.464 29.0158C317.898 28.9667 317.333 28.9421 316.767 28.9421C316.005 28.9421 315.231 28.9667 314.444 29.0158C313.657 29.0404 313.067 29.065 312.674 29.0896V28.3151C313.165 28.3151 313.51 28.1922 313.706 27.9463C313.903 27.7004 313.866 27.4054 313.596 27.0612L309.354 20.8653C308.887 20.2015 308.457 19.7712 308.064 19.5745C307.695 19.3778 307.154 19.2672 306.441 19.2426V18.505C307.228 18.4066 307.867 18.2468 308.359 18.0255C308.85 17.7797 309.318 17.4232 309.76 16.956L312.489 14.1162C313.276 13.3049 313.669 12.6656 313.669 12.1985C313.669 11.7067 313.411 11.3625 312.895 11.1658C312.403 10.9445 311.752 10.8339 310.94 10.8339V10.0963C311.58 10.1209 312.293 10.1578 313.079 10.2069C313.891 10.2315 314.567 10.2438 315.108 10.2438C315.526 10.2438 315.931 10.2438 316.325 10.2438C316.718 10.2192 317.087 10.1947 317.431 10.1701C317.775 10.1455 318.07 10.1209 318.316 10.0963Z" fill="white"/>
<path d="M291.184 9.58008C292.119 9.58008 292.893 9.70301 293.508 9.94888C294.147 10.1947 294.676 10.539 295.094 10.9815C295.561 11.4733 295.893 12.0879 296.089 12.8255C296.286 13.5631 296.384 14.5589 296.384 15.8128V25.6598C296.384 26.6925 296.593 27.3932 297.011 27.762C297.454 28.1308 298.179 28.3152 299.187 28.3152V29.0897C298.769 29.0651 298.13 29.0405 297.269 29.0159C296.409 28.9668 295.573 28.9422 294.762 28.9422C293.95 28.9422 293.151 28.9668 292.364 29.0159C291.602 29.0405 291.024 29.0651 290.631 29.0897V28.3152C291.516 28.3152 292.143 28.1308 292.512 27.762C292.881 27.3932 293.065 26.6925 293.065 25.6598V15.0015C293.065 14.2393 293.004 13.5386 292.881 12.8993C292.758 12.26 292.475 11.7437 292.032 11.3503C291.614 10.9569 290.963 10.7602 290.078 10.7602C289.045 10.7602 288.135 11.0553 287.349 11.6454C286.586 12.2355 285.984 13.0468 285.542 14.0795C285.124 15.0875 284.915 16.2185 284.915 17.4724V25.6598C284.915 26.6925 285.099 27.3932 285.468 27.762C285.837 28.1308 286.464 28.3152 287.349 28.3152V29.0897C286.955 29.0651 286.365 29.0405 285.578 29.0159C284.816 28.9668 284.029 28.9422 283.218 28.9422C282.407 28.9422 281.571 28.9668 280.71 29.0159C279.85 29.0405 279.21 29.0651 278.792 29.0897V28.3152C279.801 28.3152 280.514 28.1308 280.932 27.762C281.374 27.3932 281.595 26.6925 281.595 25.6598V14.1163C281.595 13.0099 281.399 12.1986 281.005 11.6823C280.612 11.1413 279.874 10.8709 278.792 10.8709V10.0964C279.579 10.1702 280.341 10.207 281.079 10.207C281.792 10.207 282.468 10.1702 283.107 10.0964C283.771 9.99805 284.374 9.86283 284.915 9.69072V14.0426C285.554 12.3707 286.439 11.2151 287.57 10.5758C288.726 9.912 289.93 9.58008 291.184 9.58008Z" fill="white"/>
<path d="M265.661 29.3479C264.653 29.3479 263.781 29.1635 263.043 28.7947C262.305 28.4013 261.74 27.8604 261.346 27.1719C260.978 26.4835 260.793 25.6844 260.793 24.7747C260.793 23.6929 261.039 22.8078 261.531 22.1193C262.047 21.4309 262.699 20.8777 263.485 20.4597C264.272 20.0418 265.096 19.6975 265.956 19.4271C266.842 19.132 267.678 18.8616 268.464 18.6157C269.251 18.3453 269.89 18.0379 270.382 17.6937C270.898 17.3495 271.157 16.8946 271.157 16.3292V14.0426C271.157 13.0099 270.997 12.2232 270.677 11.6823C270.382 11.1413 269.976 10.7848 269.46 10.6127C268.944 10.416 268.366 10.3177 267.727 10.3177C267.112 10.3177 266.448 10.4037 265.735 10.5758C265.047 10.748 264.494 11.1045 264.076 11.6454C264.543 11.7437 264.948 11.9896 265.293 12.383C265.637 12.7764 265.809 13.2804 265.809 13.8951C265.809 14.5097 265.612 15.0015 265.219 15.3703C264.825 15.7145 264.321 15.8866 263.707 15.8866C262.994 15.8866 262.465 15.6653 262.121 15.2227C261.801 14.7556 261.641 14.2393 261.641 13.6738C261.641 13.0345 261.801 12.5182 262.121 12.1248C262.441 11.7314 262.846 11.3626 263.338 11.0184C263.903 10.625 264.629 10.2931 265.514 10.0226C266.424 9.7276 267.444 9.58008 268.575 9.58008C269.583 9.58008 270.444 9.70301 271.157 9.94888C271.87 10.1702 272.46 10.5021 272.927 10.9446C273.566 11.5347 273.984 12.26 274.181 13.1206C274.377 13.9565 274.476 14.9646 274.476 16.1448V26.3974C274.476 27.0121 274.562 27.4547 274.734 27.7251C274.931 27.9956 275.226 28.1308 275.619 28.1308C275.89 28.1308 276.148 28.0693 276.394 27.9464C276.639 27.8235 276.934 27.6268 277.279 27.3563L277.684 27.9833C277.168 28.3767 276.676 28.7086 276.209 28.9791C275.742 29.2249 275.115 29.3479 274.328 29.3479C273.615 29.3479 273.025 29.2249 272.558 28.9791C272.091 28.7332 271.734 28.3767 271.488 27.9095C271.267 27.4178 271.157 26.8031 271.157 26.0655C270.493 27.1719 269.694 27.9956 268.759 28.5365C267.85 29.0774 266.817 29.3479 265.661 29.3479ZM266.989 27.8726C267.8 27.8726 268.55 27.6391 269.239 27.1719C269.952 26.7048 270.591 26.0041 271.157 25.0698V17.8412C270.861 18.2592 270.431 18.6157 269.866 18.9108C269.3 19.1812 268.686 19.464 268.022 19.759C267.358 20.0295 266.719 20.3614 266.104 20.7548C265.514 21.1236 265.022 21.6153 264.629 22.23C264.235 22.8447 264.039 23.6437 264.039 24.6272C264.039 25.6107 264.297 26.3974 264.813 26.9875C265.354 27.5776 266.079 27.8726 266.989 27.8726Z" fill="white"/>
<path d="M255.736 0.175537V25.6597C255.736 26.6924 255.945 27.3931 256.363 27.7619C256.805 28.1307 257.53 28.3151 258.539 28.3151V29.0896C258.121 29.065 257.481 29.0404 256.621 29.0158C255.785 28.9667 254.937 28.9421 254.076 28.9421C253.24 28.9421 252.392 28.9667 251.531 29.0158C250.671 29.0404 250.032 29.065 249.614 29.0896V28.3151C250.622 28.3151 251.335 28.1307 251.753 27.7619C252.195 27.3931 252.416 26.6924 252.416 25.6597V4.60116C252.416 3.49475 252.22 2.68339 251.826 2.16707C251.433 1.62616 250.695 1.3557 249.614 1.3557V0.581218C250.4 0.654979 251.162 0.691859 251.9 0.691859C252.613 0.691859 253.289 0.654979 253.928 0.581218C254.592 0.482872 255.195 0.347645 255.736 0.175537Z" fill="white"/>
<path d="M239.063 9.58008C240.636 9.58008 242.05 9.92429 243.304 10.6127C244.558 11.3012 245.554 12.383 246.291 13.8582C247.053 15.3334 247.435 17.2512 247.435 19.6115C247.435 21.9718 247.053 23.8896 246.291 25.3648C245.554 26.8154 244.558 27.8849 243.304 28.5734C242.05 29.2618 240.636 29.606 239.063 29.606C237.514 29.606 236.1 29.2618 234.821 28.5734C233.568 27.8849 232.56 26.8154 231.797 25.3648C231.06 23.8896 230.691 21.9718 230.691 19.6115C230.691 17.2512 231.06 15.3334 231.797 13.8582C232.56 12.383 233.568 11.3012 234.821 10.6127C236.1 9.92429 237.514 9.58008 239.063 9.58008ZM239.063 10.3177C237.661 10.3177 236.506 11.043 235.596 12.4936C234.711 13.9442 234.268 16.3169 234.268 19.6115C234.268 22.9061 234.711 25.2787 235.596 26.7294C236.506 28.1554 237.661 28.8684 239.063 28.8684C240.464 28.8684 241.607 28.1554 242.493 26.7294C243.402 25.2787 243.857 22.9061 243.857 19.6115C243.857 16.3169 243.402 13.9442 242.493 12.4936C241.607 11.043 240.464 10.3177 239.063 10.3177Z" fill="white"/>
<path d="M218.482 2.573C219.711 2.573 220.646 2.72052 221.285 3.01556C221.924 3.28602 222.49 3.59335 222.982 3.93756C223.277 4.10967 223.51 4.2449 223.682 4.34325C223.879 4.41701 224.063 4.45389 224.235 4.45389C224.481 4.45389 224.653 4.31866 224.752 4.04821C224.875 3.77775 224.973 3.37207 225.047 2.83116H225.895C225.87 3.24913 225.834 3.75316 225.784 4.34325C225.76 4.90874 225.735 5.67093 225.711 6.62982C225.711 7.56411 225.711 8.80575 225.711 10.3547H224.862C224.789 9.17455 224.53 8.04356 224.088 6.96174C223.645 5.87992 222.994 4.9948 222.133 4.30637C221.297 3.61794 220.191 3.27372 218.814 3.27372C217.511 3.27372 216.429 3.66711 215.569 4.45389C214.733 5.24066 214.315 6.27331 214.315 7.55182C214.315 8.65823 214.597 9.59253 215.163 10.3547C215.728 11.0923 216.478 11.7685 217.413 12.3831C218.371 12.9732 219.404 13.6125 220.511 14.3009C221.789 15.0877 222.92 15.8745 223.904 16.6612C224.912 17.4234 225.698 18.2717 226.264 19.206C226.854 20.1403 227.149 21.2712 227.149 22.5989C227.149 24.1725 226.792 25.4756 226.079 26.5082C225.366 27.5409 224.42 28.3154 223.24 28.8317C222.06 29.348 220.756 29.6062 219.33 29.6062C218.027 29.6062 216.995 29.4586 216.232 29.1636C215.47 28.8686 214.819 28.5612 214.278 28.2416C213.737 27.8974 213.319 27.7253 213.024 27.7253C212.778 27.7253 212.594 27.8605 212.471 28.131C212.372 28.4014 212.286 28.8071 212.212 29.348H211.364C211.413 28.8317 211.438 28.2293 211.438 27.5409C211.463 26.8279 211.475 25.9059 211.475 24.7749C211.499 23.6439 211.512 22.2178 211.512 20.4968H212.36C212.458 21.972 212.729 23.3488 213.171 24.6273C213.639 25.9059 214.339 26.9385 215.274 27.7253C216.232 28.4875 217.499 28.8686 219.072 28.8686C219.884 28.8686 220.646 28.7088 221.359 28.3891C222.096 28.0449 222.699 27.5163 223.166 26.8033C223.633 26.0657 223.867 25.1191 223.867 23.9635C223.867 22.9554 223.621 22.0826 223.129 21.345C222.662 20.5828 221.998 19.8821 221.137 19.2428C220.277 18.579 219.269 17.9029 218.113 17.2144C216.958 16.5014 215.876 15.7761 214.868 15.0385C213.86 14.3009 213.048 13.4527 212.434 12.4938C211.844 11.5103 211.549 10.3301 211.549 8.95327C211.549 7.50265 211.868 6.31019 212.508 5.37589C213.171 4.41701 214.032 3.71628 215.089 3.27372C216.146 2.80657 217.277 2.573 218.482 2.573Z" fill="white"/>
<path d="M191.312 9.58008C192.247 9.58008 193.021 9.70301 193.636 9.94888C194.275 10.1947 194.804 10.539 195.222 10.9815C195.689 11.4733 196.021 12.0879 196.217 12.8255C196.414 13.5631 196.512 14.5589 196.512 15.8128V25.6598C196.512 26.6925 196.721 27.3932 197.139 27.762C197.582 28.1308 198.307 28.3152 199.315 28.3152V29.0897C198.897 29.0651 198.258 29.0405 197.398 29.0159C196.537 28.9668 195.701 28.9422 194.89 28.9422C194.078 28.9422 193.279 28.9668 192.493 29.0159C191.73 29.0405 191.153 29.0651 190.759 29.0897V28.3152C191.644 28.3152 192.271 28.1308 192.64 27.762C193.009 27.3932 193.193 26.6925 193.193 25.6598V15.0015C193.193 14.2393 193.132 13.5386 193.009 12.8993C192.886 12.26 192.603 11.7437 192.161 11.3503C191.743 10.9569 191.091 10.7602 190.206 10.7602C189.173 10.7602 188.264 11.0553 187.477 11.6454C186.715 12.2355 186.112 13.0468 185.67 14.0795C185.252 15.0875 185.043 16.2185 185.043 17.4724V25.6598C185.043 26.6925 185.227 27.3932 185.596 27.762C185.965 28.1308 186.592 28.3152 187.477 28.3152V29.0897C187.083 29.0651 186.493 29.0405 185.707 29.0159C184.944 28.9668 184.158 28.9422 183.346 28.9422C182.535 28.9422 181.699 28.9668 180.838 29.0159C179.978 29.0405 179.339 29.0651 178.921 29.0897V28.3152C179.929 28.3152 180.642 28.1308 181.06 27.762C181.502 27.3932 181.724 26.6925 181.724 25.6598V14.1163C181.724 13.0099 181.527 12.1986 181.133 11.6823C180.74 11.1413 180.002 10.8709 178.921 10.8709V10.0964C179.707 10.1702 180.47 10.207 181.207 10.207C181.92 10.207 182.596 10.1702 183.236 10.0964C183.899 9.99805 184.502 9.86283 185.043 9.69072V14.0426C185.682 12.3707 186.567 11.2151 187.698 10.5758C188.854 9.912 190.058 9.58008 191.312 9.58008Z" fill="white"/>
<path d="M172.32 0.876221C172.96 0.876221 173.513 1.1098 173.98 1.57694C174.447 2.04409 174.681 2.5973 174.681 3.23655C174.681 3.87581 174.447 4.42901 173.98 4.89616C173.513 5.36331 172.96 5.59688 172.32 5.59688C171.681 5.59688 171.128 5.36331 170.661 4.89616C170.194 4.42901 169.96 3.87581 169.96 3.23655C169.96 2.5973 170.194 2.04409 170.661 1.57694C171.128 1.1098 171.681 0.876221 172.32 0.876221ZM174.238 9.69059V25.6597C174.238 26.6923 174.447 27.3931 174.865 27.7619C175.308 28.1307 176.033 28.3151 177.041 28.3151V29.0896C176.623 29.065 175.984 29.0404 175.123 29.0158C174.287 28.9666 173.439 28.942 172.578 28.942C171.743 28.942 170.894 28.9666 170.034 29.0158C169.173 29.0404 168.534 29.065 168.116 29.0896V28.3151C169.124 28.3151 169.837 28.1307 170.255 27.7619C170.698 27.3931 170.919 26.6923 170.919 25.6597V14.1162C170.919 13.0098 170.722 12.1984 170.329 11.6821C169.935 11.1412 169.198 10.8708 168.116 10.8708V10.0963C168.903 10.17 169.665 10.2069 170.403 10.2069C171.116 10.2069 171.792 10.17 172.431 10.0963C173.095 9.99792 173.697 9.86269 174.238 9.69059Z" fill="white"/>
<path d="M154.985 29.3479C153.977 29.3479 153.104 29.1635 152.366 28.7947C151.629 28.4013 151.063 27.8604 150.67 27.1719C150.301 26.4835 150.117 25.6844 150.117 24.7747C150.117 23.6929 150.363 22.8078 150.854 22.1193C151.371 21.4309 152.022 20.8777 152.809 20.4597C153.596 20.0418 154.419 19.6975 155.28 19.4271C156.165 19.132 157.001 18.8616 157.788 18.6157C158.575 18.3453 159.214 18.0379 159.706 17.6937C160.222 17.3495 160.48 16.8946 160.48 16.3292V14.0426C160.48 13.0099 160.32 12.2232 160.001 11.6823C159.706 11.1413 159.3 10.7848 158.784 10.6127C158.267 10.416 157.689 10.3177 157.05 10.3177C156.435 10.3177 155.772 10.4037 155.059 10.5758C154.37 10.748 153.817 11.1045 153.399 11.6454C153.866 11.7437 154.272 11.9896 154.616 12.383C154.96 12.7764 155.132 13.2804 155.132 13.8951C155.132 14.5097 154.936 15.0015 154.542 15.3703C154.149 15.7145 153.645 15.8866 153.03 15.8866C152.317 15.8866 151.789 15.6653 151.444 15.2227C151.125 14.7556 150.965 14.2393 150.965 13.6738C150.965 13.0345 151.125 12.5182 151.444 12.1248C151.764 11.7314 152.17 11.3626 152.661 11.0184C153.227 10.625 153.952 10.2931 154.837 10.0226C155.747 9.7276 156.767 9.58008 157.898 9.58008C158.906 9.58008 159.767 9.70301 160.48 9.94888C161.193 10.1702 161.783 10.5021 162.25 10.9446C162.89 11.5347 163.308 12.26 163.504 13.1206C163.701 13.9565 163.799 14.9646 163.799 16.1448V26.3974C163.799 27.0121 163.885 27.4547 164.057 27.7251C164.254 27.9956 164.549 28.1308 164.943 28.1308C165.213 28.1308 165.471 28.0693 165.717 27.9464C165.963 27.8235 166.258 27.6268 166.602 27.3563L167.008 27.9833C166.491 28.3767 166 28.7086 165.533 28.9791C165.065 29.2249 164.438 29.3479 163.652 29.3479C162.939 29.3479 162.349 29.2249 161.881 28.9791C161.414 28.7332 161.058 28.3767 160.812 27.9095C160.591 27.4178 160.48 26.8031 160.48 26.0655C159.816 27.1719 159.017 27.9956 158.083 28.5365C157.173 29.0774 156.14 29.3479 154.985 29.3479ZM156.313 27.8726C157.124 27.8726 157.874 27.6391 158.562 27.1719C159.275 26.7048 159.915 26.0041 160.48 25.0698V17.8412C160.185 18.2592 159.755 18.6157 159.189 18.9108C158.624 19.1812 158.009 19.464 157.345 19.759C156.681 20.0295 156.042 20.3614 155.427 20.7548C154.837 21.1236 154.346 21.6153 153.952 22.23C153.559 22.8447 153.362 23.6437 153.362 24.6272C153.362 25.6107 153.62 26.3974 154.137 26.9875C154.678 27.5776 155.403 27.8726 156.313 27.8726Z" fill="white"/>
<path d="M136.74 36.0234V35.3227C137.846 35.2981 138.768 35.0276 139.506 34.5113C140.268 33.995 140.834 33.1345 141.202 31.9297C141.596 30.7495 141.793 29.1637 141.793 27.1722V6.88806C141.793 5.97835 141.719 5.3145 141.571 4.89653C141.424 4.45397 141.129 4.15893 140.686 4.01141C140.268 3.8393 139.641 3.74095 138.805 3.71636V2.97876C139.322 3.00335 139.998 3.02793 140.834 3.05252C141.67 3.07711 142.542 3.0894 143.452 3.0894C144.362 3.0894 145.235 3.07711 146.071 3.05252C146.931 3.02793 147.644 3.00335 148.21 2.97876V3.71636C147.374 3.74095 146.735 3.8393 146.292 4.01141C145.874 4.15893 145.591 4.45397 145.444 4.89653C145.296 5.3145 145.222 5.97835 145.222 6.88806V20.3862C145.222 21.3943 145.21 22.4884 145.186 23.6685C145.161 24.8487 145.099 25.992 145.001 27.0984C144.927 28.2048 144.792 29.176 144.595 30.0119C144.177 31.733 143.292 33.159 141.94 34.29C140.612 35.4456 138.879 36.0234 136.74 36.0234Z" fill="white"/>
<path d="M122.762 0.876221C123.402 0.876221 123.955 1.1098 124.422 1.57694C124.889 2.04409 125.123 2.5973 125.123 3.23655C125.123 3.87581 124.889 4.42901 124.422 4.89616C123.955 5.36331 123.402 5.59688 122.762 5.59688C122.123 5.59688 121.57 5.36331 121.103 4.89616C120.636 4.42901 120.402 3.87581 120.402 3.23655C120.402 2.5973 120.636 2.04409 121.103 1.57694C121.57 1.1098 122.123 0.876221 122.762 0.876221ZM124.68 9.69059V25.6597C124.68 26.6923 124.889 27.3931 125.307 27.7619C125.75 28.1307 126.475 28.3151 127.483 28.3151V29.0896C127.065 29.065 126.426 29.0404 125.565 29.0158C124.729 28.9666 123.881 28.942 123.021 28.942C122.185 28.942 121.336 28.9666 120.476 29.0158C119.615 29.0404 118.976 29.065 118.558 29.0896V28.3151C119.566 28.3151 120.279 28.1307 120.697 27.7619C121.14 27.3931 121.361 26.6923 121.361 25.6597V14.1162C121.361 13.0098 121.164 12.1984 120.771 11.6821C120.378 11.1412 119.64 10.8708 118.558 10.8708V10.0963C119.345 10.17 120.107 10.2069 120.845 10.2069C121.558 10.2069 122.234 10.17 122.873 10.0963C123.537 9.99792 124.139 9.86269 124.68 9.69059Z" fill="white"/>
<path d="M113.869 0.175537V25.6597C113.869 26.6924 114.078 27.3931 114.496 27.7619C114.939 28.1307 115.664 28.3151 116.672 28.3151V29.0896C116.254 29.065 115.615 29.0404 114.755 29.0158C113.919 28.9667 113.07 28.9421 112.21 28.9421C111.374 28.9421 110.526 28.9667 109.665 29.0158C108.805 29.0404 108.165 29.065 107.747 29.0896V28.3151C108.755 28.3151 109.468 28.1307 109.886 27.7619C110.329 27.3931 110.55 26.6924 110.55 25.6597V4.60116C110.55 3.49475 110.354 2.68339 109.96 2.16707C109.567 1.62616 108.829 1.3557 107.747 1.3557V0.581218C108.534 0.654979 109.296 0.691859 110.034 0.691859C110.747 0.691859 111.423 0.654979 112.062 0.581218C112.726 0.482872 113.329 0.347645 113.869 0.175537Z" fill="white"/>
<path d="M94.8745 29.3479C93.8665 29.3479 92.9936 29.1635 92.256 28.7947C91.5184 28.4013 90.9529 27.8604 90.5596 27.1719C90.1907 26.4835 90.0063 25.6844 90.0063 24.7747C90.0063 23.6929 90.2522 22.8078 90.744 22.1193C91.2603 21.4309 91.9118 20.8777 92.6986 20.4597C93.4854 20.0418 94.309 19.6975 95.1696 19.4271C96.0547 19.132 96.8906 18.8616 97.6774 18.6157C98.4642 18.3453 99.1035 18.0379 99.5952 17.6937C100.112 17.3495 100.37 16.8946 100.37 16.3292V14.0426C100.37 13.0099 100.21 12.2232 99.8902 11.6823C99.5952 11.1413 99.1895 10.7848 98.6732 10.6127C98.1569 10.416 97.5791 10.3177 96.9398 10.3177C96.3251 10.3177 95.6613 10.4037 94.9483 10.5758C94.2599 10.748 93.7067 11.1045 93.2887 11.6454C93.7558 11.7437 94.1615 11.9896 94.5057 12.383C94.8499 12.7764 95.0221 13.2804 95.0221 13.8951C95.0221 14.5097 94.8254 15.0015 94.432 15.3703C94.0386 15.7145 93.5346 15.8866 92.9199 15.8866C92.2069 15.8866 91.6782 15.6653 91.334 15.2227C91.0144 14.7556 90.8546 14.2393 90.8546 13.6738C90.8546 13.0345 91.0144 12.5182 91.334 12.1248C91.6537 11.7314 92.0593 11.3626 92.5511 11.0184C93.1166 10.625 93.8419 10.2931 94.727 10.0226C95.6367 9.7276 96.6571 9.58008 97.7881 9.58008C98.7961 9.58008 99.6567 9.70301 100.37 9.94888C101.083 10.1702 101.673 10.5021 102.14 10.9446C102.779 11.5347 103.197 12.26 103.394 13.1206C103.591 13.9565 103.689 14.9646 103.689 16.1448V26.3974C103.689 27.0121 103.775 27.4547 103.947 27.7251C104.144 27.9956 104.439 28.1308 104.832 28.1308C105.103 28.1308 105.361 28.0693 105.607 27.9464C105.853 27.8235 106.148 27.6268 106.492 27.3563L106.897 27.9833C106.381 28.3767 105.889 28.7086 105.422 28.9791C104.955 29.2249 104.328 29.3479 103.541 29.3479C102.828 29.3479 102.238 29.2249 101.771 28.9791C101.304 28.7332 100.947 28.3767 100.702 27.9095C100.48 27.4178 100.37 26.8031 100.37 26.0655C99.7058 27.1719 98.9068 27.9956 97.9725 28.5365C97.0628 29.0774 96.0301 29.3479 94.8745 29.3479ZM96.2022 27.8726C97.0136 27.8726 97.7635 27.6391 98.4519 27.1719C99.1649 26.7048 99.8042 26.0041 100.37 25.0698V17.8412C100.075 18.2592 99.6444 18.6157 99.0789 18.9108C98.5134 19.1812 97.8987 19.464 97.2349 19.759C96.571 20.0295 95.9318 20.3614 95.3171 20.7548C94.727 21.1236 94.2353 21.6153 93.8419 22.23C93.4485 22.8447 93.2518 23.6437 93.2518 24.6272C93.2518 25.6107 93.51 26.3974 94.0263 26.9875C94.5672 27.5776 95.2925 27.8726 96.2022 27.8726Z" fill="white"/>
<path d="M73.7461 0.212646V14.0058C74.3854 12.3339 75.2705 11.1784 76.4015 10.5391C77.5571 9.89984 78.7618 9.58021 80.0158 9.58021C80.9501 9.58021 81.7245 9.70315 82.3392 9.94901C82.9785 10.1949 83.5071 10.5391 83.9251 10.9817C84.3922 11.4734 84.7241 12.0881 84.9208 12.8257C85.1175 13.5633 85.2159 14.559 85.2159 15.813V25.66C85.2159 26.6926 85.4249 27.3933 85.8428 27.7621C86.2854 28.1309 87.0107 28.3153 88.0188 28.3153V29.0898C87.6008 29.0652 86.9615 29.0407 86.101 29.0161C85.2405 28.9669 84.4045 28.9423 83.5931 28.9423C82.7818 28.9423 81.9827 28.9669 81.1959 29.0161C80.4337 29.0407 79.856 29.0652 79.4626 29.0898V28.3153C80.3477 28.3153 80.9746 28.1309 81.3434 27.7621C81.7123 27.3933 81.8967 26.6926 81.8967 25.66V15.0016C81.8967 14.2394 81.8352 13.5387 81.7123 12.8994C81.5893 12.2602 81.3066 11.7438 80.864 11.3505C80.446 10.9571 79.7945 10.7604 78.9094 10.7604C77.9013 10.7604 77.0039 11.0431 76.2171 11.6086C75.4549 12.1741 74.8525 12.9609 74.41 13.969C73.9674 14.977 73.7461 16.1326 73.7461 17.4357V25.66C73.7461 26.6926 73.9305 27.3933 74.2993 27.7621C74.6681 28.1309 75.2951 28.3153 76.1802 28.3153V29.0898C75.7868 29.0652 75.1968 29.0407 74.41 29.0161C73.6478 28.9669 72.861 28.9423 72.0496 28.9423C71.2383 28.9423 70.4023 28.9669 69.5418 29.0161C68.6813 29.0407 68.042 29.0652 67.624 29.0898V28.3153C68.6321 28.3153 69.3451 28.1309 69.7631 27.7621C70.2056 27.3933 70.4269 26.6926 70.4269 25.66V4.63827C70.4269 3.53186 70.2302 2.7205 69.8368 2.20418C69.4434 1.66327 68.7058 1.39281 67.624 1.39281V0.618329C68.4108 0.692089 69.173 0.728969 69.9106 0.728969C70.6236 0.728969 71.2997 0.692089 71.939 0.618329C72.6028 0.519982 73.2052 0.384755 73.7461 0.212646Z" fill="white"/>
<path d="M58.0623 9.58008C59.0458 9.58008 59.8818 9.73989 60.5702 10.0595C61.2586 10.3792 61.7626 10.6742 62.0823 10.9446C62.8936 11.6085 63.3854 11.1659 63.5575 9.61696H64.4057C64.3566 10.3054 64.3197 11.129 64.2951 12.0879C64.2705 13.0222 64.2582 14.2885 64.2582 15.8866H63.41C63.2624 14.9769 63.0043 14.0918 62.6355 13.2312C62.2913 12.3707 61.7749 11.67 61.0865 11.129C60.3981 10.5635 59.5007 10.2808 58.3943 10.2808C57.5337 10.2808 56.8084 10.5267 56.2183 11.0184C55.6528 11.4856 55.3701 12.1863 55.3701 13.1206C55.3701 13.8582 55.5914 14.4974 56.0339 15.0383C56.4765 15.5547 57.0543 16.0464 57.7673 16.5136C58.4803 16.9561 59.2548 17.4479 60.0907 17.9888C61.025 18.5788 61.8733 19.1812 62.6355 19.7959C63.3977 20.4106 64 21.0867 64.4426 21.8243C64.9098 22.5619 65.1433 23.4347 65.1433 24.4428C65.1433 25.5738 64.8483 26.5204 64.2582 27.2826C63.6681 28.0448 62.8936 28.6225 61.9348 29.0159C61.0005 29.4093 59.9678 29.606 58.8368 29.606C58.2959 29.606 57.7796 29.5568 57.2878 29.4585C56.8207 29.3847 56.3658 29.2618 55.9233 29.0897C55.6774 28.9668 55.4193 28.8192 55.1488 28.6471C54.9029 28.475 54.6571 28.2906 54.4112 28.0939C54.1653 27.8972 53.944 27.9095 53.7474 28.1308C53.5507 28.3275 53.4031 28.7332 53.3048 29.3479H52.4565C52.5057 28.5611 52.5426 27.6022 52.5672 26.4712C52.5918 25.3402 52.6041 23.8404 52.6041 21.9718H53.4523C53.6244 23.3487 53.8703 24.5534 54.1899 25.5861C54.5095 26.6187 55.0136 27.4301 55.702 28.0202C56.3904 28.5857 57.3493 28.8684 58.5787 28.8684C59.0704 28.8684 59.5621 28.7578 60.0539 28.5365C60.5702 28.3152 61.0005 27.9464 61.3447 27.4301C61.6889 26.9138 61.861 26.2253 61.861 25.3648C61.861 24.283 61.4676 23.3979 60.6808 22.7094C59.894 22.021 58.8983 21.2957 57.6935 20.5335C56.8084 19.968 55.9725 19.4025 55.1857 18.837C54.4235 18.2715 53.7965 17.6323 53.3048 16.9192C52.8376 16.2062 52.6041 15.3457 52.6041 14.3376C52.6041 13.2312 52.8499 12.3338 53.3417 11.6454C53.858 10.9324 54.5341 10.416 55.3701 10.0964C56.206 9.75219 57.1034 9.58008 58.0623 9.58008Z" fill="white"/>
<path d="M44.8603 0.876221C45.4996 0.876221 46.0528 1.1098 46.52 1.57694C46.9871 2.04409 47.2207 2.5973 47.2207 3.23655C47.2207 3.87581 46.9871 4.42901 46.52 4.89616C46.0528 5.36331 45.4996 5.59688 44.8603 5.59688C44.2211 5.59688 43.6679 5.36331 43.2007 4.89616C42.7336 4.42901 42.5 3.87581 42.5 3.23655C42.5 2.5973 42.7336 2.04409 43.2007 1.57694C43.6679 1.1098 44.2211 0.876221 44.8603 0.876221ZM46.7781 9.69059V25.6597C46.7781 26.6923 46.9871 27.3931 47.4051 27.7619C47.8476 28.1307 48.573 28.3151 49.581 28.3151V29.0896C49.163 29.065 48.5238 29.0404 47.6632 29.0158C46.8273 28.9666 45.979 28.942 45.1185 28.942C44.2826 28.942 43.4343 28.9666 42.5738 29.0158C41.7132 29.0404 41.074 29.065 40.656 29.0896V28.3151C41.6641 28.3151 42.3771 28.1307 42.7951 27.7619C43.2376 27.3931 43.4589 26.6923 43.4589 25.6597V14.1162C43.4589 13.0098 43.2622 12.1984 42.8688 11.6821C42.4754 11.1412 41.7378 10.8708 40.656 10.8708V10.0963C41.4428 10.17 42.205 10.2069 42.9426 10.2069C43.6556 10.2069 44.3317 10.17 44.971 10.0963C45.6348 9.99792 46.2372 9.86269 46.7781 9.69059Z" fill="white"/>
<path d="M27.5249 29.3479C26.5169 29.3479 25.644 29.1635 24.9064 28.7947C24.1688 28.4013 23.6033 27.8604 23.2099 27.1719C22.8411 26.4835 22.6567 25.6844 22.6567 24.7747C22.6567 23.6929 22.9026 22.8078 23.3943 22.1193C23.9107 21.4309 24.5622 20.8777 25.349 20.4597C26.1358 20.0418 26.9594 19.6975 27.82 19.4271C28.7051 19.132 29.541 18.8616 30.3278 18.6157C31.1146 18.3453 31.7538 18.0379 32.2456 17.6937C32.7619 17.3495 33.0201 16.8946 33.0201 16.3292V14.0426C33.0201 13.0099 32.8603 12.2232 32.5406 11.6823C32.2456 11.1413 31.8399 10.7848 31.3236 10.6127C30.8073 10.416 30.2295 10.3177 29.5902 10.3177C28.9755 10.3177 28.3117 10.4037 27.5987 10.5758C26.9103 10.748 26.3571 11.1045 25.9391 11.6454C26.4062 11.7437 26.8119 11.9896 27.1561 12.383C27.5003 12.7764 27.6724 13.2804 27.6724 13.8951C27.6724 14.5097 27.4758 15.0015 27.0824 15.3703C26.689 15.7145 26.1849 15.8866 25.5703 15.8866C24.8573 15.8866 24.3286 15.6653 23.9844 15.2227C23.6648 14.7556 23.505 14.2393 23.505 13.6738C23.505 13.0345 23.6648 12.5182 23.9844 12.1248C24.3041 11.7314 24.7097 11.3626 25.2015 11.0184C25.767 10.625 26.4923 10.2931 27.3774 10.0226C28.2871 9.7276 29.3075 9.58008 30.4385 9.58008C31.4465 9.58008 32.3071 9.70301 33.0201 9.94888C33.7331 10.1702 34.3232 10.5021 34.7903 10.9446C35.4296 11.5347 35.8476 12.26 36.0442 13.1206C36.2409 13.9565 36.3393 14.9646 36.3393 16.1448V26.3974C36.3393 27.0121 36.4253 27.4547 36.5974 27.7251C36.7941 27.9956 37.0892 28.1308 37.4826 28.1308C37.753 28.1308 38.0112 28.0693 38.2571 27.9464C38.5029 27.8235 38.798 27.6268 39.1422 27.3563L39.5479 27.9833C39.0315 28.3767 38.5398 28.7086 38.0727 28.9791C37.6055 29.2249 36.9785 29.3479 36.1918 29.3479C35.4787 29.3479 34.8887 29.2249 34.4215 28.9791C33.9544 28.7332 33.5979 28.3767 33.352 27.9095C33.1307 27.4178 33.0201 26.8031 33.0201 26.0655C32.3562 27.1719 31.5572 27.9956 30.6229 28.5365C29.7131 29.0774 28.6805 29.3479 27.5249 29.3479ZM28.8526 27.8726C29.664 27.8726 30.4139 27.6391 31.1023 27.1719C31.8153 26.7048 32.4546 26.0041 33.0201 25.0698V17.8412C32.725 18.2592 32.2948 18.6157 31.7293 18.9108C31.1638 19.1812 30.5491 19.464 29.8853 19.759C29.2214 20.0295 28.5822 20.3614 27.9675 20.7548C27.3774 21.1236 26.8857 21.6153 26.4923 22.23C26.0989 22.8447 25.9022 23.6437 25.9022 24.6272C25.9022 25.6107 26.1604 26.3974 26.6767 26.9875C27.2176 27.5776 27.9429 27.8726 28.8526 27.8726Z" fill="white"/>
<path d="M23.714 2.97876V3.71636C23.2468 3.81471 22.7428 4.09746 22.2019 4.56461C21.6855 5.03176 21.2184 5.81853 20.8004 6.92494L12.1336 29.2743C12.0844 29.2743 12.0352 29.2743 11.9861 29.2743C11.9369 29.2743 11.8877 29.2743 11.8385 29.2743C11.7894 29.2743 11.7402 29.2743 11.691 29.2743C11.6418 29.2743 11.5927 29.2743 11.5435 29.2743L2.54473 6.0767C2.17593 5.1424 1.75796 4.52773 1.29081 4.23269C0.823657 3.91306 0.393389 3.74095 0 3.71636V2.97876C0.491736 3.00335 1.09411 3.02793 1.80713 3.05252C2.54473 3.07711 3.25775 3.0894 3.94618 3.0894C4.90506 3.0894 5.80248 3.07711 6.63843 3.05252C7.47438 3.02793 8.15052 3.00335 8.66684 2.97876V3.71636C7.83089 3.74095 7.19164 3.8393 6.74907 4.01141C6.3311 4.18351 6.09752 4.49085 6.04835 4.93341C6.02376 5.35138 6.17128 5.97835 6.49091 6.8143L13.3506 24.9962L12.7605 25.6232L19.1777 8.95335C19.694 7.62566 19.9399 6.59302 19.9153 5.85541C19.8907 5.09322 19.608 4.55232 19.0671 4.23269C18.5261 3.91306 17.7394 3.74095 16.7067 3.71636V2.97876C17.4197 3.00335 18.1451 3.02793 18.8827 3.05252C19.6203 3.07711 20.3087 3.0894 20.9479 3.0894C21.5872 3.0894 22.1158 3.07711 22.5338 3.05252C22.9518 3.02793 23.3452 3.00335 23.714 2.97876Z" fill="white"/>
</svg>
