<svg width="239" height="120" viewBox="0 0 239 120" fill="none" xmlns="http://www.w3.org/2000/svg">
<path d="M18.2266 85.4709L13.5658 92.7402C12.8837 93.9139 12.2395 95.0118 11.6332 96.337C11.0269 95.0118 10.4206 93.9896 9.66278 92.7402L5.0398 85.4709H0V85.5845L9.39752 100.047V111.216H13.831V100.047L23.2664 85.5845V85.4709H18.2266Z" fill="white"/>
<path d="M30.6968 111.708C36.3429 111.708 40.2838 107.771 40.2838 102.205C40.2838 96.6398 36.3429 92.7402 30.6968 92.7402C25.1265 92.7402 21.1856 96.6398 21.1856 102.205C21.1856 107.771 25.1265 111.708 30.6968 111.708ZM30.7347 107.998C27.5516 107.998 25.3917 105.613 25.3917 102.205C25.3917 98.7979 27.5516 96.4505 30.7347 96.4505C33.9177 96.4505 36.1155 98.7979 36.1155 102.205C36.1155 105.613 33.9177 107.998 30.7347 107.998Z" fill="white"/>
<path d="M55.8978 93.1945V102.508C55.8978 105.348 54.42 107.809 51.4643 107.809C49.115 107.809 48.2055 106.294 48.2055 104.023V93.1945H44.0373V104.363C44.0373 108.755 46.1214 111.557 50.517 111.557C53.1316 111.557 55.14 110.308 56.3147 108.377L57.1483 111.216H60.0282V93.1945H55.8978Z" fill="white"/>
<path d="M74.7631 92.7402C71.8453 92.7402 69.8369 94.2168 68.7001 96.1477L67.8286 93.1945H65.0245V111.216H69.1927V101.486C69.1927 98.5329 70.8979 96.5263 73.702 96.5263C75.862 96.5263 76.9609 97.8514 76.9609 100.237V111.216H81.0912V99.8959C81.0912 95.3526 78.8555 92.7402 74.7631 92.7402Z" fill="white"/>
<path d="M100.863 93.1945L100.105 95.9205C98.5896 93.876 96.2402 92.778 93.474 92.778C88.5479 92.778 84.9101 96.5263 84.9101 102.168C84.9101 107.695 88.51 111.481 93.5119 111.481C95.9371 111.481 98.0212 110.573 99.5369 108.945C99.499 109.815 99.499 110.724 99.499 111.595C99.499 114.548 97.377 116.252 94.0045 116.252C91.6172 116.252 89.6847 115.57 87.8279 114.207L86.2743 117.425C88.6616 119.167 91.2004 120 94.3077 120C99.9917 120 103.667 116.895 103.667 111.519V93.1945H100.863ZM94.3077 107.847C91.1625 107.847 89.1163 105.537 89.1163 102.13C89.1163 98.7222 91.2004 96.4505 94.3456 96.4505C97.5665 96.4505 99.6885 98.7222 99.6885 102.168C99.6885 105.537 97.5665 107.847 94.3077 107.847Z" fill="white"/>
<path d="M124.475 111.671C127.658 111.671 130.386 110.27 132.281 108.528L135.198 111.671L139.026 110.8L134.592 106.029C136.259 103.531 137.169 100.426 137.207 97.7H133.455C133.379 99.3658 132.887 101.448 131.939 103.19L126.975 98.1164C130.196 96.2234 132.735 94.0653 132.735 90.885C132.735 87.629 130.159 85.0166 126.218 85.0166C121.67 85.0166 118.828 88.0076 118.828 91.5665C118.828 93.611 119.927 95.504 121.633 97.4728C118.146 99.5551 116.479 102.281 116.479 105.234C116.479 108.717 119.283 111.671 124.475 111.671ZM124.702 95.504C123.414 93.9896 122.807 92.8916 122.807 91.5665C122.807 90.0142 123.906 88.6133 125.99 88.6133C127.809 88.6133 128.87 89.787 128.87 91.0364C128.87 93.0431 126.9 94.2546 124.702 95.504ZM124.664 107.998C122.125 107.998 120.723 106.522 120.723 104.818C120.723 103.228 121.746 101.372 124.096 100.123L129.742 105.802C128.491 107.014 126.786 107.998 124.664 107.998Z" fill="white"/>
<path d="M177.901 85.4709L173.505 98.6086C173.088 99.858 172.634 101.259 172.217 102.735C171.686 101.259 171.118 99.8202 170.474 98.4193L165.358 87.0232H164.221L158.954 98.9493C158.386 100.123 157.931 101.297 157.476 102.773C157.097 101.297 156.68 100.085 156.302 98.9115L151.792 85.4709H147.131V85.5845L156.15 111.368H157.476L163.729 97.6621C164.108 96.7913 164.449 95.9205 164.79 94.7847C165.169 95.9205 165.51 96.7913 165.926 97.6621L172.179 111.368H173.505L182.562 85.5845V85.4709H177.901Z" fill="white"/>
<path d="M193.082 92.8538C190.733 92.8538 188.952 93.9517 187.929 95.8826L187.133 93.1945H184.329V111.216H188.497V101.183C188.497 98.3057 190.24 96.6398 192.665 96.6398C193.689 96.6398 194.446 96.8291 195.129 97.132L196.152 93.611C195.318 93.1188 194.295 92.8538 193.082 92.8538Z" fill="white"/>
<path d="M201.03 89.9006C202.66 89.9006 203.607 88.7648 203.607 87.4397C203.607 86.0767 202.697 84.9408 201.03 84.9408C199.401 84.9408 198.453 86.0767 198.453 87.4018C198.453 88.7269 199.401 89.9006 201.03 89.9006ZM198.946 111.216H203.114V93.1945H198.946V111.216Z" fill="white"/>
<path d="M214.755 111.595C216.839 111.595 218.468 110.989 220.135 109.967L218.771 106.824C217.71 107.468 216.725 107.771 215.74 107.771C214.527 107.771 213.694 107.241 213.694 105.461V96.7534H219.302V93.1945H213.694V87.7804H209.677L209.563 93.1945H206.38V96.5263L209.563 96.7534V105.878C209.563 109.664 211.572 111.595 214.755 111.595Z" fill="white"/>
<path d="M230.777 92.7402C225.321 92.7402 221.531 96.9427 221.531 102.13C221.531 107.847 225.396 111.708 231.27 111.708C233.847 111.708 236.12 110.951 238.242 109.134L236.499 106.446C235.211 107.619 233.695 108.225 231.573 108.225C228.693 108.225 226.23 106.749 225.699 103.568H238.848C238.962 102.849 239 102.168 239 101.524C239 96.1855 235.893 92.7402 230.777 92.7402ZM230.739 96.1855C233.202 96.1855 234.908 97.7757 234.983 100.691H225.699C226.23 97.8135 228.2 96.1855 230.739 96.1855Z" fill="white"/>
<path d="M75.1157 2.19875C74.5898 1.19988 75.3142 0 76.443 0H93.1966C93.7528 0 94.2633 0.307747 94.523 0.799571L112.005 33.9052C112.267 34.4017 112.23 35.0031 111.909 35.4636L102.331 49.1972C101.688 50.1192 100.297 50.0326 99.7736 49.038L75.1157 2.19875Z" fill="white"/>
<path d="M110.418 2.19078C109.9 1.19228 110.624 0 111.749 0H127.424C127.977 0 128.485 0.304492 128.746 0.792247L146.511 33.9876C146.773 34.4779 146.743 35.0731 146.432 35.5341L137.266 49.125C136.629 50.0686 135.215 49.9874 134.691 48.977L110.418 2.19078Z" fill="white"/>
<path d="M145.506 2.26752C144.91 1.26766 145.631 0 146.795 0H163.332C164.539 0 165.251 1.35365 164.568 2.34898L155.713 15.2475C155.093 16.1497 153.747 16.1063 153.188 15.166L145.506 2.26752Z" fill="white"/>
<path d="M129.519 58.9091C126.819 64.8367 123.006 68.9009 116.86 70.3384C112.899 71.2672 109.11 69.3209 107.387 65.588C105.759 62.0682 106.724 58.1401 109.785 55.8211C112.965 53.4134 116.943 53.4666 120.075 56.253C122.728 58.6133 125.529 60.0745 129.525 58.9091H129.519Z" fill="white"/>
</svg>
